<svg width="1440" height="390" viewBox="0 0 1440 390" fill="none" xmlns="http://www.w3.org/2000/svg">
<g clip-path="url(#clip0_2032_57265)">
<path fill-rule="evenodd" clip-rule="evenodd" d="M113.922 159.874L113.979 159.717C117.735 149.49 111.943 140.22 100.379 135.973C93.7093 133.524 87.7161 133.457 82.3993 134.808C79.3086 135.593 77.7237 139.222 78.6558 142.274L79.3356 144.499C80.2681 147.55 83.424 148.966 86.5783 148.481C89.4529 148.039 92.1391 148.214 94.4156 149.05C98.1914 150.437 99.7092 152.869 98.7265 155.544L98.6978 155.622C97.4552 159.006 92.4537 162.656 83.0393 160.091L82.5951 160.329C82.3499 160.46 81.6287 163.101 80.9833 166.225L80.4595 168.773C79.8142 171.896 81.4234 175.211 84.0515 176.176C86.6796 177.142 89.4366 176.875 90.2057 175.58C90.9783 174.286 91.6035 173.236 91.6035 173.236C101.115 174.317 110.281 169.787 113.922 159.874ZM310.847 182.811L310.985 182.579C320.012 167.42 313.555 150.938 296.415 140.731C286.528 134.844 277.008 132.951 268.142 133.518C262.988 133.847 259.384 139.15 259.958 144.285L260.377 148.03C260.952 153.164 265.553 156.36 270.719 156.527C275.426 156.68 279.65 157.76 283.024 159.769C288.621 163.102 290.313 167.425 287.951 171.391L287.882 171.507C284.896 176.522 275.846 180.842 261.626 173.952L260.847 174.199C260.418 174.335 258.483 178.323 256.525 183.103L254.932 187.003C252.973 191.783 254.547 197.539 258.443 199.859C262.338 202.178 266.806 202.575 268.416 200.744C270.032 198.914 271.34 197.429 271.34 197.429C286.158 201.985 302.098 197.505 310.847 182.811ZM206.638 284.605L206.614 284.769C205.081 295.136 197.092 301.392 187.633 302.265C187.633 302.265 187.238 303.411 186.749 304.825C186.263 306.238 183.638 307.055 180.89 306.648C178.141 306.242 175.908 303.347 175.903 300.182L175.896 297.6C175.892 294.435 176.059 291.723 176.27 291.546L176.654 291.225C186.319 291.813 190.44 287.256 190.963 283.717L190.975 283.635C191.389 280.837 189.423 278.782 185.474 278.198C183.093 277.846 180.448 278.218 177.744 279.23C174.778 280.339 171.425 279.601 169.902 276.825L168.792 274.801C167.269 272.024 168.075 268.178 170.919 266.79C175.812 264.402 181.648 263.255 188.624 264.287C200.717 266.074 208.219 273.91 206.638 284.605ZM170.996 315.855C171.459 312.724 174.371 310.56 177.503 311.023L182.371 311.743C185.501 312.206 187.666 315.12 187.203 318.251L186.811 320.899C186.348 324.03 183.435 326.194 180.303 325.731L175.435 325.011C172.305 324.548 170.141 321.634 170.604 318.503L170.996 315.855ZM237.794 207.609C240.437 203.171 246.176 201.714 250.614 204.357L257.514 208.466C261.951 211.108 263.408 216.849 260.765 221.288L258.53 225.04C255.887 229.479 250.147 230.934 245.709 228.291L238.809 224.183C234.372 221.541 232.917 215.8 235.56 211.362L237.794 207.609ZM176.056 173.64L175.985 173.532C171.347 166.484 162.908 165.822 154.939 171.066C150.342 174.091 147.541 177.792 145.934 181.725C145 184.011 146.53 186.668 148.859 187.493L150.558 188.095C152.887 188.919 155.222 187.606 156.372 185.419C157.42 183.425 158.766 181.833 160.335 180.801C162.937 179.089 165.15 179.263 166.363 181.107L166.399 181.161C167.933 183.493 167.903 188.288 161.971 192.968L161.915 193.354C161.884 193.568 163.196 195.232 164.843 197.073L166.189 198.572C167.836 200.412 170.641 200.937 172.452 199.745C174.264 198.553 175.367 196.713 174.915 195.638C174.465 194.561 174.099 193.689 174.099 193.689C179.152 188.264 180.552 180.471 176.056 173.64ZM171.478 210.246C170.12 208.183 170.691 205.41 172.754 204.052L175.962 201.941C178.025 200.583 180.799 201.155 182.157 203.218L183.305 204.963C184.663 207.026 184.091 209.8 182.028 211.158L178.82 213.269C176.757 214.626 173.984 214.054 172.626 211.991L171.478 210.246ZM445.054 306.666L445.09 306.542C447.416 298.432 442.42 291.598 433.25 288.968C427.961 287.451 423.328 287.737 419.298 289.08C416.955 289.86 415.935 292.752 416.826 295.056L417.477 296.737C418.369 299.041 420.886 299.957 423.295 299.405C425.49 298.902 427.575 298.886 429.38 299.404C432.374 300.263 433.683 302.055 433.075 304.177L433.057 304.239C432.288 306.922 428.63 310.023 421.214 308.571L420.885 308.78C420.703 308.895 420.294 310.975 419.971 313.424L419.71 315.422C419.388 317.871 420.817 320.34 422.901 320.938C424.985 321.536 427.1 321.174 427.621 320.131C427.838 319.698 428.039 319.299 428.199 318.98L428.568 318.242C435.976 318.542 442.8 314.527 445.054 306.666ZM414.299 327.039C414.98 324.665 417.456 323.292 419.83 323.972L423.521 325.031C425.895 325.712 427.269 328.189 426.588 330.563L426.012 332.571C425.331 334.945 422.854 336.318 420.48 335.637L416.789 334.579C414.415 333.898 413.042 331.421 413.723 329.047L414.299 327.039ZM72.4004 183.227C73.5001 180.233 76.8176 178.697 79.8118 179.796L84.4666 181.506C87.4599 182.605 88.9967 185.925 87.897 188.919L86.9672 191.45C85.8675 194.445 82.5487 195.98 79.5545 194.881L74.8997 193.171C71.9067 192.072 70.3709 188.753 71.4706 185.759L72.4004 183.227ZM445.37 200.323L445.405 200.055C447.649 182.555 435.162 170.007 415.375 167.47C403.961 166.006 394.475 168.061 386.568 172.111C381.971 174.465 380.777 180.765 383.349 185.247L385.224 188.515C387.796 192.996 393.289 194.095 398.094 192.192C402.473 190.457 406.777 189.766 410.673 190.265C417.134 191.094 420.407 194.386 419.82 198.964L419.803 199.098C419.06 204.888 412.48 212.453 396.691 211.796L396.076 212.333C395.736 212.629 395.549 217.057 395.656 222.222L395.748 226.434C395.855 231.598 399.59 236.251 404.088 236.828C408.585 237.404 412.841 235.99 413.589 233.669C414.342 231.347 414.951 229.464 414.951 229.464C430.357 227.743 443.195 217.286 445.37 200.323ZM388.233 252.16C388.89 247.036 393.574 243.415 398.698 244.072L406.663 245.093C411.785 245.75 415.408 250.436 414.751 255.56L414.195 259.892C413.538 265.015 408.852 268.636 403.729 267.979L395.763 266.958C390.642 266.301 387.021 261.615 387.678 256.492L388.233 252.16ZM106.983 251.562L106.922 251.383C102.96 239.671 91.2411 235.602 77.9986 240.082C70.3598 242.666 65.0159 246.874 61.2795 251.854C59.1073 254.748 60.29 259.083 63.2866 261.116L65.4717 262.599C68.4679 264.631 72.2655 263.636 74.7074 260.962C76.9327 258.524 79.4315 256.766 82.0386 255.885C86.3627 254.422 89.4352 255.49 90.4717 258.554L90.502 258.644C91.8128 262.518 89.9917 269.305 79.8455 273.741L79.6227 274.268C79.4996 274.558 80.7421 277.405 82.3958 280.625L83.7471 283.25C85.4008 286.47 89.1829 288.254 92.1926 287.235C95.2023 286.217 97.4489 284.019 97.207 282.327C96.9682 280.633 96.7731 279.26 96.7731 279.26C105.948 273.444 110.823 262.914 106.983 251.562ZM86.9162 301.762C85.7562 298.333 87.5942 294.613 91.0232 293.453L96.354 291.65C99.7818 290.49 103.503 292.329 104.663 295.758L105.644 298.658C106.804 302.087 104.964 305.807 101.535 306.967L96.2046 308.77C92.777 309.929 89.0569 308.09 87.8969 304.661L86.9162 301.762ZM317.352 278.898L317.304 278.735C314.179 268.138 303.859 264.093 291.877 267.626C284.965 269.664 280.046 273.233 276.534 277.548C274.492 280.056 275.396 283.968 278 285.889L279.898 287.29C282.502 289.21 285.928 288.455 288.203 286.153C290.275 284.055 292.569 282.574 294.927 281.878C298.84 280.724 301.546 281.786 302.363 284.559L302.387 284.64C303.421 288.146 301.556 294.141 292.34 297.744L292.123 298.207C292.002 298.462 293.011 301.048 294.375 303.981L295.489 306.373C296.852 309.306 300.166 311.032 302.889 310.229C305.612 309.426 307.696 307.542 307.539 306.023C307.386 304.502 307.26 303.269 307.26 303.269C315.658 298.399 320.381 289.169 317.352 278.898ZM297.666 323.013C296.751 319.911 298.523 316.654 301.626 315.739L306.449 314.317C309.551 313.402 312.808 315.176 313.723 318.278L314.497 320.901C315.412 324.004 313.638 327.261 310.536 328.176L305.712 329.598C302.611 330.513 299.354 328.739 298.439 325.637L297.666 323.013ZM1271.49 284.64L1271.51 284.477C1273.09 273.781 1265.59 265.946 1253.5 264.158C1246.52 263.126 1240.68 264.273 1235.79 266.661C1232.95 268.05 1232.14 271.895 1233.66 274.672L1234.77 276.697C1236.3 279.472 1239.65 280.21 1242.62 279.101C1245.32 278.089 1247.97 277.717 1250.35 278.069C1254.3 278.653 1256.26 280.708 1255.85 283.506L1255.84 283.588C1255.31 287.127 1251.19 291.684 1241.53 291.096L1241.14 291.417C1240.93 291.595 1240.76 294.306 1240.77 297.471L1240.78 300.053C1240.78 303.218 1243.01 306.113 1245.76 306.52C1248.51 306.926 1251.14 306.109 1251.62 304.696L1252.09 303.341C1252.34 302.617 1252.51 302.136 1252.51 302.136C1261.96 301.263 1269.95 295.008 1271.49 284.64ZM1235.87 315.726C1236.33 312.595 1239.24 310.431 1242.38 310.894L1247.24 311.614C1250.37 312.077 1252.54 314.991 1252.08 318.122L1251.68 320.77C1251.22 323.901 1248.31 326.065 1245.18 325.602L1240.31 324.882C1237.18 324.419 1235.01 321.505 1235.48 318.374L1235.87 315.726ZM1150.28 182.683L1150.42 182.45C1159.44 167.291 1152.99 150.809 1135.85 140.602C1125.96 134.715 1116.44 132.822 1107.57 133.389C1102.42 133.718 1098.82 139.021 1099.39 144.156L1099.81 147.901C1100.38 153.035 1104.98 156.231 1110.15 156.398C1114.86 156.551 1119.08 157.631 1122.46 159.64C1128.05 162.973 1129.74 167.296 1127.38 171.262L1127.31 171.378C1124.33 176.393 1115.28 180.713 1101.06 173.823L1100.28 174.07C1099.85 174.207 1097.91 178.194 1095.96 182.974L1094.36 186.874C1092.4 191.654 1093.98 197.41 1097.87 199.73C1101.77 202.049 1106.24 202.446 1107.85 200.615C1109.46 198.785 1110.77 197.3 1110.77 197.3C1125.59 201.856 1141.53 197.376 1150.28 182.683ZM1077.23 207.481C1079.87 203.042 1085.61 201.585 1090.05 204.228L1096.95 208.337C1101.38 210.979 1102.84 216.72 1100.2 221.159L1097.96 224.911C1095.32 229.35 1089.58 230.805 1085.14 228.162L1078.24 224.054C1073.8 221.412 1072.35 215.671 1074.99 211.233L1077.23 207.481ZM1240.93 173.511L1240.86 173.403C1236.22 166.355 1227.78 165.693 1219.81 170.937C1215.21 173.963 1212.41 177.663 1210.81 181.596C1209.87 183.882 1211.4 186.539 1213.73 187.364L1215.43 187.966C1217.76 188.79 1220.09 187.477 1221.24 185.29C1222.29 183.296 1223.64 181.705 1225.21 180.672C1227.81 178.96 1230.02 179.134 1231.24 180.978L1231.27 181.032C1232.81 183.364 1232.78 188.159 1226.84 192.839L1226.79 193.225C1226.76 193.439 1228.07 195.103 1229.72 196.944L1231.06 198.443C1232.71 200.283 1235.51 200.808 1237.33 199.616C1239.14 198.424 1240.24 196.584 1239.79 195.51C1239.34 194.433 1238.97 193.56 1238.97 193.56C1244.02 188.135 1245.42 180.342 1240.93 173.511ZM1236.35 210.117C1234.99 208.054 1235.56 205.281 1237.63 203.923L1240.83 201.812C1242.9 200.454 1245.67 201.026 1247.03 203.089L1248.18 204.834C1249.54 206.897 1248.96 209.671 1246.9 211.029L1243.69 213.14C1241.63 214.497 1238.86 213.925 1237.5 211.862L1236.35 210.117ZM1024.12 306.537L1024.15 306.413C1026.48 298.303 1021.48 291.469 1012.31 288.839C1007.02 287.323 1002.39 287.608 998.362 288.951C996.019 289.731 994.999 292.623 995.89 294.928L996.541 296.608C997.432 298.912 999.95 299.829 1002.36 299.276C1004.55 298.773 1006.64 298.757 1008.44 299.275C1011.44 300.134 1012.75 301.926 1012.14 304.048L1012.12 304.11C1011.35 306.793 1007.69 309.894 1000.28 308.442L999.949 308.651C999.767 308.766 999.358 310.846 999.035 313.295L998.774 315.293C998.452 317.742 999.881 320.211 1001.97 320.809C1004.05 321.407 1006.16 321.046 1006.68 320.003C1006.88 319.609 1007.07 319.244 1007.22 318.942L1007.48 318.414L1007.63 318.113C1015.04 318.413 1021.86 314.399 1024.12 306.537ZM993.363 326.91C994.044 324.536 996.52 323.163 998.894 323.844L1002.59 324.902C1004.96 325.583 1006.33 328.06 1005.65 330.434L1005.08 332.442C1004.4 334.816 1001.92 336.189 999.544 335.508L995.853 334.45C993.479 333.769 992.106 331.292 992.787 328.918L993.363 326.91ZM1368.08 159.745L1368.13 159.588C1371.89 149.361 1366.1 140.091 1354.54 135.844C1347.86 133.395 1341.87 133.328 1336.55 134.679C1333.46 135.464 1331.88 139.093 1332.81 142.145L1333.49 144.37C1334.42 147.421 1337.58 148.838 1340.73 148.352C1343.61 147.91 1346.29 148.085 1348.57 148.921C1352.35 150.308 1353.86 152.74 1352.88 155.415L1352.85 155.493C1351.61 158.877 1346.61 162.527 1337.19 159.962L1336.75 160.2C1336.51 160.332 1335.78 162.972 1335.14 166.096L1334.62 168.644C1333.97 171.767 1335.58 175.082 1338.21 176.047C1340.84 177.013 1343.59 176.746 1344.36 175.452C1344.69 174.904 1344.99 174.4 1345.23 174.001L1345.76 173.107C1355.27 174.189 1364.44 169.658 1368.08 159.745ZM1326.56 183.098C1327.66 180.104 1330.97 178.568 1333.97 179.668L1338.62 181.377C1341.62 182.477 1343.15 185.796 1342.05 188.79L1341.12 191.321C1340.02 194.316 1336.7 195.852 1333.71 194.752L1329.06 193.042C1326.06 191.943 1324.53 188.624 1325.63 185.63L1326.56 183.098ZM1024.43 200.194L1024.47 199.926C1026.71 182.426 1014.23 169.878 994.439 167.341C983.025 165.878 973.539 167.932 965.632 171.982C961.035 174.336 959.841 180.636 962.413 185.118L964.288 188.387C966.86 192.867 972.353 193.966 977.158 192.063C981.537 190.328 985.841 189.637 989.737 190.136C996.198 190.965 999.471 194.257 998.884 198.835L998.867 198.969C998.124 204.759 991.544 212.324 975.755 211.667L975.14 212.204C974.8 212.5 974.613 216.928 974.72 222.093L974.812 226.305C974.919 231.469 978.654 236.122 983.152 236.699C987.649 237.276 991.905 235.861 992.653 233.54C993.406 231.218 994.015 229.335 994.015 229.335C1009.42 227.614 1022.26 217.157 1024.43 200.194ZM967.297 252.031C967.954 246.907 972.638 243.286 977.762 243.943L985.727 244.964C990.849 245.621 994.472 250.307 993.815 255.431L993.259 259.763C992.602 264.887 987.916 268.507 982.793 267.851L974.827 266.829C969.706 266.172 966.085 261.486 966.742 256.363L967.297 252.031ZM1361.14 251.433L1361.08 251.254C1357.12 239.542 1345.4 235.474 1332.15 239.953C1324.52 242.537 1319.17 246.745 1315.44 251.725C1313.26 254.619 1314.45 258.954 1317.44 260.987L1319.63 262.47C1322.62 264.502 1326.42 263.507 1328.86 260.833C1331.09 258.395 1333.59 256.638 1336.19 255.756C1340.52 254.293 1343.59 255.361 1344.63 258.425L1344.66 258.515C1345.97 262.389 1344.15 269.176 1334 273.612L1333.78 274.139C1333.66 274.43 1334.9 277.276 1336.55 280.496L1337.9 283.121C1339.56 286.341 1343.34 288.125 1346.35 287.106C1349.36 286.088 1351.6 283.89 1351.36 282.198C1351.24 281.358 1351.14 280.596 1351.06 280.042L1350.93 279.131C1360.1 273.315 1364.98 262.785 1361.14 251.433ZM1341.07 301.633C1339.91 298.204 1341.75 294.484 1345.18 293.324L1350.51 291.521C1353.94 290.361 1357.66 292.2 1358.82 295.629L1359.8 298.529C1360.96 301.958 1359.12 305.678 1355.69 306.838L1350.36 308.641C1346.93 309.801 1343.21 307.961 1342.05 304.532L1341.07 301.633ZM1156.78 278.769L1156.74 278.606C1153.61 268.009 1143.29 263.964 1131.31 267.497C1124.4 269.535 1119.48 273.104 1115.97 277.419C1113.92 279.927 1114.83 283.839 1117.43 285.76L1119.33 287.161C1121.93 289.081 1125.36 288.326 1127.63 286.024C1129.71 283.926 1132 282.445 1134.36 281.749C1138.27 280.596 1140.98 281.658 1141.79 284.43L1141.82 284.511C1142.85 288.017 1140.99 294.013 1131.77 297.615L1131.55 298.078C1131.43 298.333 1132.44 300.919 1133.81 303.852L1134.92 306.244C1136.28 309.177 1139.6 310.903 1142.32 310.1C1145.04 309.297 1147.13 307.413 1146.97 305.894C1146.82 304.373 1146.69 303.14 1146.69 303.14C1155.09 298.27 1159.81 289.04 1156.78 278.769ZM1137.1 322.884C1136.18 319.782 1137.95 316.525 1141.06 315.61L1145.88 314.188C1148.98 313.274 1152.24 315.047 1153.15 318.149L1153.93 320.773C1154.84 323.875 1153.07 327.132 1149.97 328.047L1145.14 329.469C1142.04 330.384 1138.79 328.61 1137.87 325.508L1137.1 322.884ZM784.226 304.9L784.245 304.771C785.493 296.328 779.571 290.143 770.025 288.732C764.518 287.918 759.911 288.823 756.049 290.708C753.804 291.804 753.168 294.84 754.37 297.031L755.247 298.63C756.449 300.82 759.095 301.403 761.437 300.527C763.571 299.729 765.659 299.435 767.538 299.713C770.655 300.174 772.208 301.796 771.881 304.005L771.872 304.07C771.459 306.863 768.206 310.461 760.576 309.996L760.273 310.25C760.106 310.39 759.975 312.53 759.978 315.028L759.983 317.066C759.987 319.565 761.75 321.85 763.92 322.171C766.09 322.492 768.161 321.847 768.545 320.732C768.691 320.309 768.826 319.916 768.938 319.592L769.143 318.999L769.242 318.711C776.71 318.022 783.016 313.084 784.226 304.9ZM756.11 329.438C756.475 326.967 758.774 325.259 761.246 325.624L765.089 326.192C767.56 326.558 769.268 328.858 768.903 331.33L768.594 333.42C768.229 335.892 765.929 337.599 763.457 337.234L759.614 336.666C757.143 336.3 755.435 334 755.801 331.528L756.11 329.438ZM688.548 224.418L688.657 224.235C695.782 212.268 690.685 199.258 677.155 191.202C669.35 186.554 661.836 185.06 654.837 185.507C650.769 185.767 647.924 189.953 648.378 194.007L648.708 196.963C649.162 201.016 652.794 203.538 656.872 203.67C660.588 203.791 663.921 204.643 666.585 206.229C671.003 208.86 672.338 212.272 670.474 215.403L670.42 215.495C668.062 219.453 660.919 222.863 649.694 217.425L649.079 217.62C648.74 217.727 647.213 220.875 645.667 224.648L644.41 227.727C642.864 231.5 644.106 236.044 647.181 237.875C650.256 239.706 653.783 240.019 655.054 238.574C656.329 237.129 657.362 235.957 657.362 235.957C669.058 239.553 681.641 236.017 688.548 224.418ZM630.882 243.993C632.968 240.489 637.498 239.34 641.001 241.426L646.448 244.669C649.95 246.754 651.1 251.286 649.014 254.79L647.25 257.752C645.164 261.256 640.633 262.405 637.129 260.318L631.683 257.075C628.181 254.99 627.032 250.458 629.118 246.955L630.882 243.993ZM760.104 217.179L760.048 217.093C756.387 211.53 749.726 211.007 743.435 215.147C739.807 217.535 737.595 220.456 736.327 223.561C735.59 225.365 736.797 227.463 738.636 228.114L739.977 228.589C741.815 229.239 743.658 228.203 744.566 226.476C745.394 224.903 746.456 223.646 747.695 222.831C749.749 221.48 751.495 221.617 752.453 223.073L752.481 223.115C753.692 224.956 753.669 228.741 748.986 232.435L748.942 232.74C748.917 232.909 749.953 234.223 751.253 235.675L752.315 236.859C753.616 238.312 755.83 238.726 757.26 237.785C758.689 236.844 759.56 235.392 759.204 234.543C758.848 233.693 758.56 233.004 758.56 233.004C762.548 228.723 763.653 222.571 760.104 217.179ZM756.49 246.074C755.418 244.445 755.869 242.256 757.498 241.184L760.03 239.518C761.658 238.446 763.848 238.898 764.92 240.526L765.826 241.904C766.898 243.532 766.447 245.722 764.818 246.794L762.286 248.46C760.658 249.531 758.468 249.08 757.396 247.451L756.49 246.074ZM588.961 322.185L588.989 322.087C590.825 315.685 586.882 310.291 579.644 308.215C575.468 307.018 571.811 307.243 568.63 308.303C566.78 308.919 565.975 311.201 566.679 313.021L567.192 314.347C567.896 316.166 569.883 316.889 571.785 316.453C573.518 316.056 575.163 316.044 576.588 316.452C578.952 317.13 579.985 318.545 579.505 320.22L579.491 320.269C578.884 322.387 575.996 324.835 570.143 323.689L569.883 323.854C569.739 323.945 569.416 325.586 569.162 327.52L568.955 329.096C568.701 331.029 569.829 332.979 571.474 333.451C573.119 333.922 574.788 333.637 575.2 332.814C575.613 331.991 575.948 331.323 575.948 331.323C581.795 331.56 587.182 328.39 588.961 322.185ZM564.684 338.267C565.221 336.393 567.176 335.309 569.05 335.846L571.964 336.682C573.838 337.219 574.922 339.174 574.385 341.049L573.93 342.633C573.393 344.508 571.437 345.592 569.563 345.054L566.649 344.218C564.776 343.681 563.692 341.726 564.229 339.852L564.684 338.267ZM860.471 206.312L860.517 206.188C863.482 198.116 858.909 190.798 849.782 187.446C844.517 185.512 839.786 185.459 835.589 186.526C833.149 187.146 831.898 190.01 832.634 192.419L833.17 194.176C833.907 196.584 836.398 197.702 838.888 197.319C841.157 196.97 843.277 197.108 845.074 197.768C848.055 198.863 849.253 200.782 848.477 202.894L848.454 202.956C847.473 205.627 843.525 208.508 836.094 206.483L835.743 206.671C835.55 206.775 834.98 208.859 834.471 211.325L834.058 213.336C833.548 215.802 834.818 218.419 836.893 219.181C838.968 219.943 841.144 219.732 841.751 218.71L842.154 218.034L842.424 217.582L842.671 217.168L842.854 216.86C850.362 217.713 857.598 214.137 860.471 206.312ZM827.696 224.746C828.564 222.383 831.183 221.17 833.546 222.038L837.221 223.388C839.583 224.256 840.796 226.876 839.928 229.239L839.194 231.237C838.326 233.601 835.707 234.813 833.343 233.945L829.669 232.596C827.306 231.728 826.094 229.108 826.962 226.745L827.696 224.746ZM589.211 238.241L589.238 238.03C591.009 224.215 581.153 214.311 565.533 212.308C556.524 211.153 549.036 212.775 542.794 215.972C539.166 217.83 538.223 222.802 540.253 226.341L541.733 228.921C543.763 232.458 548.1 233.325 551.892 231.823C555.349 230.453 558.747 229.908 561.822 230.302C566.922 230.956 569.505 233.555 569.042 237.169L569.028 237.274C568.442 241.844 563.248 247.817 550.785 247.298L550.299 247.722C550.031 247.955 549.884 251.451 549.968 255.527L550.04 258.852C550.125 262.929 553.073 266.602 556.623 267.057C560.173 267.512 563.533 266.395 564.124 264.563C564.718 262.73 565.198 261.244 565.198 261.244C577.36 259.885 587.494 251.631 589.211 238.241ZM544.109 279.159C544.627 275.115 548.325 272.256 552.369 272.775L558.657 273.581C562.7 274.1 565.56 277.799 565.041 281.843L564.602 285.263C564.084 289.307 560.385 292.166 556.34 291.647L550.053 290.841C546.01 290.322 543.152 286.623 543.67 282.579L544.109 279.159ZM854.994 278.688L854.946 278.546C851.818 269.301 842.568 266.09 832.115 269.626C826.085 271.666 821.867 274.987 818.917 278.918C817.203 281.203 818.136 284.625 820.502 286.23L822.227 287.4C824.592 289.004 827.589 288.219 829.517 286.107C831.273 284.183 833.246 282.796 835.304 282.1C838.717 280.945 841.143 281.788 841.961 284.207L841.985 284.278C843.019 287.336 841.582 292.693 833.573 296.195L833.397 296.611C833.3 296.84 834.28 299.087 835.586 301.629L836.653 303.701C837.958 306.243 840.943 307.651 843.319 306.847C845.695 306.043 847.468 304.308 847.277 302.973C847.089 301.636 846.935 300.552 846.935 300.552C854.178 295.961 858.025 287.649 854.994 278.688ZM839.154 318.314C838.238 315.607 839.689 312.671 842.396 311.755L846.604 310.332C849.31 309.416 852.247 310.868 853.163 313.575L853.937 315.863C854.853 318.57 853.401 321.507 850.694 322.422L846.486 323.846C843.78 324.761 840.844 323.309 839.928 320.602L839.154 318.314ZM693.683 300.265L693.645 300.137C691.178 291.772 683.032 288.579 673.574 291.368C668.118 292.977 664.234 295.794 661.462 299.2C659.851 301.179 660.564 304.268 662.619 305.784L664.118 306.89C666.173 308.406 668.878 307.81 670.673 305.993C672.309 304.336 674.119 303.167 675.981 302.618C679.07 301.707 681.206 302.546 681.851 304.734L681.87 304.798C682.686 307.566 681.214 312.298 673.939 315.142L673.767 315.508C673.672 315.709 674.469 317.75 675.545 320.066L676.424 321.953C677.5 324.269 680.116 325.631 682.266 324.997C684.416 324.363 686.06 322.876 685.937 321.677C685.885 321.16 685.836 320.685 685.799 320.311L685.716 319.504C692.345 315.659 696.073 308.374 693.683 300.265ZM678.143 335.089C677.421 332.64 678.82 330.069 681.269 329.347L685.076 328.224C687.524 327.502 690.096 328.902 690.818 331.351L691.429 333.422C692.151 335.871 690.751 338.442 688.302 339.164L684.495 340.287C682.047 341.009 679.476 339.609 678.754 337.159L678.143 335.089Z" fill="url(#paint0_linear_2032_57265)"/>
</g>
<defs>
<linearGradient id="paint0_linear_2032_57265" x1="682.206" y1="369.956" x2="675.752" y2="-280.94" gradientUnits="userSpaceOnUse">
<stop stop-color="white" stop-opacity="0"/>
<stop offset="1" stop-color="white" stop-opacity="0.5"/>
</linearGradient>
<clipPath id="clip0_2032_57265">
<rect width="1440" height="390" fill="white"/>
</clipPath>
</defs>
</svg>
