<svg width="1020" height="321" viewBox="0 0 1020 321" fill="none" xmlns="http://www.w3.org/2000/svg">
<mask id="mask0_431_1459" style="mask-type:alpha" maskUnits="userSpaceOnUse" x="0" y="0" width="1020" height="321">
<rect width="1020" height="320.762" fill="#40CBB3"/>
</mask>
<g mask="url(#mask0_431_1459)">
<path opacity="0.5" d="M1235.74 659.759L261.432 659.759L261.432 -329.583L1235.74 -329.583L1235.74 659.759ZM1235.12 -149.795L1235.12 -239.024L1147.26 -239.024L1147.26 -149.795L1235.12 -149.795ZM1058.72 -239.051L1058.72 -149.821L1146.61 -149.821L1146.61 -239.051L1058.72 -239.051ZM970.201 -239.051L970.201 -149.821L1058.09 -149.821L1058.09 -239.051L970.201 -239.051ZM881.686 -239.051L881.686 -149.821L969.55 -149.821L969.55 -239.051L881.686 -239.051ZM793.171 -239.051L793.171 -149.821L881.035 -149.821L881.035 -239.051L793.171 -239.051ZM704.657 -239.051L704.657 -149.821L792.52 -149.821L792.52 -239.051L704.657 -239.051ZM616.142 -239.051L616.142 -149.821L704.006 -149.821L704.006 -239.051L616.142 -239.051ZM527.627 -239.051L527.627 -149.821L615.491 -149.821L615.491 -239.051L527.627 -239.051ZM439.112 -239.051L439.112 -149.821L526.976 -149.821L526.976 -239.051L439.112 -239.051ZM350.598 -239.051L350.598 -149.821L438.462 -149.821L438.462 -239.051L350.598 -239.051ZM438.488 569.253L438.488 480.023L350.624 480.023L350.624 569.253L438.488 569.253ZM527.002 569.253L527.002 480.023L439.138 480.023L439.138 569.253L527.002 569.253ZM615.517 569.253L615.517 480.023L527.653 480.023L527.653 569.253L615.517 569.253ZM704.032 569.253L704.032 480.023L616.168 480.023L616.168 569.253L704.032 569.253ZM792.547 569.253L792.547 480.023L704.683 480.023L704.683 569.253L792.547 569.253ZM881.061 569.253L881.061 480.023L793.197 480.023L793.197 569.253L881.061 569.253ZM969.576 569.253L969.576 480.023L881.712 480.023L881.712 569.253L969.576 569.253ZM1058.09 569.253L1058.09 480.023L970.227 480.023L970.227 569.253L1058.09 569.253ZM1146.61 569.253L1146.61 480.023L1058.74 480.023L1058.74 569.253L1146.61 569.253ZM1058.72 -149.17L1058.72 -59.94L1146.61 -59.94L1146.61 -149.17L1058.72 -149.17ZM970.201 -149.17L970.201 -59.94L1058.09 -59.94L1058.09 -149.17L970.201 -149.17ZM881.686 -149.17L881.686 -59.94L969.55 -59.94L969.55 -149.17L881.686 -149.17ZM793.171 -149.17L793.171 -59.94L881.035 -59.94L881.035 -149.17L793.171 -149.17ZM704.657 -149.17L704.657 -59.94L792.52 -59.94L792.52 -149.17L704.657 -149.17ZM616.142 -149.17L616.142 -59.94L704.006 -59.94L704.006 -149.17L616.142 -149.17ZM527.627 -149.17L527.627 -59.94L615.491 -59.94L615.491 -149.17L527.627 -149.17ZM439.112 -149.17L439.112 -59.94L526.976 -59.94L526.976 -149.17L439.112 -149.17ZM527.002 479.372L527.002 390.142L439.138 390.142L439.138 479.372L527.002 479.372ZM615.517 479.372L615.517 390.142L527.653 390.142L527.653 479.372L615.517 479.372ZM704.032 479.372L704.032 390.142L616.168 390.142L616.168 479.372L704.032 479.372ZM792.547 479.372L792.547 390.142L704.683 390.142L704.683 479.372L792.547 479.372ZM881.061 479.372L881.061 390.142L793.197 390.142L793.197 479.372L881.061 479.372ZM969.576 479.372L969.576 390.142L881.712 390.142L881.712 479.372L969.576 479.372ZM1058.09 479.372L1058.09 390.142L970.227 390.142L970.227 479.372L1058.09 479.372ZM970.201 -59.2887L970.201 29.9409L1058.09 29.9409L1058.09 -59.2887L970.201 -59.2887ZM881.686 -59.2887L881.686 29.9409L969.55 29.9409L969.55 -59.2887L881.686 -59.2887ZM793.171 -59.2887L793.171 29.9409L881.035 29.9409L881.035 -59.2887L793.171 -59.2887ZM704.657 -59.2887L704.657 29.9409L792.52 29.9409L792.52 -59.2887L704.657 -59.2887ZM616.142 -59.2887L616.142 29.9409L704.006 29.9409L704.006 -59.2887L616.142 -59.2887ZM527.627 -59.2887L527.627 29.9409L615.491 29.9409L615.491 -59.2887L527.627 -59.2887ZM615.517 389.491L615.517 300.261L527.653 300.261L527.653 389.491L615.517 389.491ZM704.032 389.491L704.032 300.261L616.168 300.261L616.168 389.491L704.032 389.491ZM792.547 389.491L792.547 300.261L704.683 300.261L704.683 389.491L792.547 389.491ZM881.061 389.491L881.061 300.261L793.197 300.261L793.197 389.491L881.061 389.491ZM969.576 389.491L969.576 300.261L881.712 300.261L881.712 389.491L969.576 389.491ZM881.686 30.5923L881.686 119.822L969.55 119.822L969.55 30.5923L881.686 30.5923ZM793.171 30.5922L793.171 119.822L881.035 119.822L881.035 30.5923L793.171 30.5922ZM704.657 30.5922L704.657 119.822L792.52 119.822L792.52 30.5922L704.657 30.5922ZM616.142 30.5922L616.142 119.822L704.006 119.822L704.006 30.5922L616.142 30.5922ZM704.032 299.61L704.032 210.38L616.168 210.38L616.168 299.61L704.032 299.61ZM792.547 299.61L792.547 210.38L704.683 210.38L704.683 299.61L792.547 299.61ZM881.061 299.61L881.061 210.38L793.197 210.38L793.197 299.61L881.061 299.61ZM793.171 120.473L793.171 209.703L881.035 209.703L881.035 120.473L793.171 120.473ZM704.657 120.473L704.657 209.703L792.52 209.703L792.52 120.473L704.657 120.473ZM704.032 209.729L704.032 120.499L616.168 120.499L616.168 209.729L704.032 209.729ZM881.686 120.473L881.686 209.703L969.55 209.703L969.55 120.473L881.686 120.473ZM881.686 210.354L881.686 299.584L969.55 299.584L969.55 210.354L881.686 210.354ZM615.517 299.61L615.517 210.38L527.653 210.38L527.653 299.61L615.517 299.61ZM615.517 209.729L615.517 120.499L527.653 120.499L527.653 209.729L615.517 209.729ZM615.517 119.848L615.517 30.6183L527.653 30.6183L527.653 119.848L615.517 119.848ZM970.201 30.5923L970.201 119.822L1058.09 119.822L1058.09 30.5923L970.201 30.5923ZM970.201 120.473L970.201 209.703L1058.09 209.703L1058.09 120.473L970.201 120.473ZM970.201 210.354L970.201 299.584L1058.09 299.584L1058.09 210.354L970.201 210.354ZM970.201 300.235L970.201 389.465L1058.09 389.465L1058.09 300.235L970.201 300.235ZM527.002 389.491L527.002 300.261L439.139 300.261L439.138 389.491L527.002 389.491ZM527.002 299.61L527.002 210.38L439.139 210.38L439.139 299.61L527.002 299.61ZM527.002 209.729L527.002 120.499L439.139 120.499L439.139 209.729L527.002 209.729ZM527.002 119.848L527.002 30.6183L439.139 30.6183L439.139 119.848L527.002 119.848ZM527.002 29.967L527.002 -59.2626L439.139 -59.2626L439.139 29.967L527.002 29.967ZM1058.72 -59.2887L1058.72 29.9409L1146.61 29.941L1146.61 -59.2887L1058.72 -59.2887ZM1058.72 30.5923L1058.72 119.822L1146.61 119.822L1146.61 30.5923L1058.72 30.5923ZM1058.72 120.473L1058.72 209.703L1146.61 209.703L1146.61 120.473L1058.72 120.473ZM1058.72 210.354L1058.72 299.584L1146.61 299.584L1146.61 210.354L1058.72 210.354ZM1058.72 300.235L1058.72 389.465L1146.61 389.465L1146.61 300.235L1058.72 300.235ZM1058.72 390.116L1058.72 479.372L1146.61 479.372L1146.61 390.142L1058.72 390.142L1058.72 390.116ZM438.488 479.372L438.488 390.142L350.624 390.142L350.624 479.372L438.488 479.372ZM438.488 389.491L438.488 300.261L350.624 300.261L350.624 389.491L438.488 389.491ZM438.488 299.61L438.488 210.38L350.624 210.38L350.624 299.61L438.488 299.61ZM438.488 209.729L438.488 120.499L350.624 120.499L350.624 209.729L438.488 209.729ZM438.488 119.848L438.488 30.6183L350.624 30.6183L350.624 119.848L438.488 119.848ZM438.488 29.967L438.488 -59.2626L350.624 -59.2626L350.624 29.967L438.488 29.967ZM438.488 -59.9139L438.488 -149.144L350.624 -149.144L350.624 -59.9139L438.488 -59.9139ZM1235.12 -59.9139L1235.12 -149.144L1147.26 -149.144L1147.26 -59.9139L1235.12 -59.9139ZM1235.12 29.967L1235.12 -59.2626L1147.26 -59.2626L1147.26 29.967L1235.12 29.967ZM1235.12 119.848L1235.12 30.6183L1147.26 30.6183L1147.26 119.848L1235.12 119.848ZM1235.12 209.729L1235.12 120.499L1147.26 120.499L1147.26 209.729L1235.12 209.729ZM1235.12 299.61L1235.12 210.38L1147.26 210.38L1147.26 299.61L1235.12 299.61ZM1235.12 389.491L1235.12 300.261L1147.26 300.261L1147.26 389.491L1235.12 389.491ZM1235.12 479.372L1235.12 390.142L1147.26 390.142L1147.26 479.372L1235.12 479.372ZM1235.12 569.253L1235.12 480.023L1147.26 480.023L1147.26 569.253L1235.12 569.253ZM1235.12 659.134L1235.12 569.904L1147.26 569.904L1147.26 659.134L1235.12 659.134ZM1146.61 659.134L1146.61 569.904L1058.74 569.904L1058.74 659.134L1146.61 659.134ZM1058.09 659.134L1058.09 569.904L970.227 569.904L970.227 659.134L1058.09 659.134ZM969.576 659.134L969.576 569.904L881.712 569.904L881.712 659.134L969.576 659.134ZM881.061 659.134L881.061 569.904L793.197 569.904L793.197 659.134L881.061 659.134ZM792.547 659.134L792.547 569.904L704.683 569.904L704.683 659.134L792.547 659.134ZM704.032 659.134L704.032 569.904L616.168 569.904L616.168 659.134L704.032 659.134ZM615.517 659.134L615.517 569.904L527.653 569.904L527.653 659.133L615.517 659.134ZM527.002 659.133L527.002 569.904L439.138 569.904L439.138 659.133L527.002 659.133ZM438.488 659.133L438.488 569.904L350.624 569.904L350.624 659.133L438.488 659.133ZM262.083 569.878L262.083 659.133L349.947 659.133L349.947 569.904L262.083 569.904L262.083 569.878ZM262.083 479.997L262.083 569.253L349.947 569.253L349.947 480.023L262.083 480.023L262.083 479.997ZM262.083 390.116L262.083 479.372L349.947 479.372L349.947 390.142L262.083 390.142L262.083 390.116ZM262.083 300.235L262.083 389.465L349.947 389.465L349.947 300.235L262.083 300.235ZM262.083 210.354L262.083 299.584L349.947 299.584L349.947 210.354L262.083 210.354ZM262.083 120.473L262.083 209.703L349.947 209.703L349.947 120.473L262.083 120.473ZM262.083 30.5922L262.083 119.822L349.947 119.822L349.947 30.5922L262.083 30.5922ZM262.083 -59.2887L262.083 29.9409L349.947 29.9409L349.947 -59.2887L262.083 -59.2887ZM262.083 -149.17L262.083 -59.94L349.947 -59.94L349.947 -149.17L262.083 -149.17ZM262.083 -239.051L262.083 -149.821L349.947 -149.821L349.947 -239.051L262.083 -239.051ZM262.083 -328.932L262.083 -239.702L349.947 -239.702L349.947 -328.931L262.083 -328.932ZM350.598 -328.931L350.598 -239.702L438.462 -239.702L438.462 -328.931L350.598 -328.931ZM439.112 -328.931L439.112 -239.702L526.976 -239.702L526.976 -328.931L439.112 -328.931ZM527.627 -328.931L527.627 -239.702L615.491 -239.702L615.491 -328.931L527.627 -328.931ZM616.142 -328.931L616.142 -239.702L704.006 -239.702L704.006 -328.931L616.142 -328.931ZM704.657 -328.931L704.657 -239.702L792.52 -239.702L792.52 -328.931L704.657 -328.931ZM793.171 -328.931L793.171 -239.702L881.035 -239.702L881.035 -328.931L793.171 -328.931ZM881.686 -328.931L881.686 -239.702L969.55 -239.702L969.55 -328.931L881.686 -328.931ZM970.201 -328.931L970.201 -239.702L1058.09 -239.702L1058.09 -328.931L970.201 -328.931ZM1058.72 -328.931L1058.72 -239.702L1146.61 -239.702L1146.61 -328.931L1058.72 -328.931ZM1147.23 -239.676L1235.12 -239.676L1235.12 -328.905L1147.26 -328.905L1147.26 -239.676L1147.23 -239.676Z" fill="url(#paint0_linear_431_1459)"/>
<path opacity="0.5" d="M750.553 165.101L748.601 163.147L746.648 165.101L748.601 167.055L750.553 165.101ZM660.086 167.055L658.133 165.101L660.086 163.147L662.039 165.101L660.086 167.055ZM571.571 167.055L569.619 165.101L571.571 163.147L573.524 165.101L571.571 167.055ZM483.057 167.055L481.104 165.101L483.057 163.147L485.009 165.101L483.057 167.055ZM394.542 167.055L392.589 165.101L394.542 163.147L396.494 165.101L394.542 167.055ZM306.027 167.055L304.075 165.101L306.027 163.147L307.98 165.101L306.027 167.055ZM837.115 167.055L835.163 165.101L837.115 163.147L839.068 165.101L837.115 167.055ZM925.63 167.055L923.678 165.101L925.63 163.147L927.583 165.101L925.63 167.055ZM1014.14 167.055L1012.19 165.101L1014.14 163.147L1016.1 165.101L1014.14 167.055ZM1102.66 167.055L1100.71 165.101L1102.66 163.147L1104.61 165.101L1102.66 167.055ZM1191.17 167.055L1189.22 165.101L1191.17 163.147L1193.13 165.101L1191.17 167.055ZM748.601 256.936L746.648 254.982L748.601 253.028L750.553 254.982L748.601 256.936ZM660.086 256.936L658.133 254.982L660.086 253.028L662.039 254.982L660.086 256.936ZM571.571 256.936L569.619 254.982L571.571 253.028L573.524 254.982L571.571 256.936ZM483.057 256.936L481.104 254.982L483.057 253.028L485.009 254.982L483.057 256.936ZM394.542 256.936L392.589 254.982L394.542 253.028L396.494 254.982L394.542 256.936ZM306.027 256.936L304.075 254.982L306.027 253.028L307.98 254.982L306.027 256.936ZM837.115 256.936L835.163 254.982L837.115 253.028L839.068 254.982L837.115 256.936ZM925.63 256.936L923.678 254.982L925.63 253.028L927.583 254.982L925.63 256.936ZM1014.14 256.936L1012.19 254.982L1014.14 253.028L1016.1 254.982L1014.14 256.936ZM1102.66 256.936L1100.71 254.982L1102.66 253.028L1104.61 254.982L1102.66 256.936ZM1191.17 256.936L1189.22 254.982L1191.17 253.028L1193.13 254.982L1191.17 256.936ZM748.601 346.817L746.648 344.863L748.601 342.909L750.553 344.863L748.601 346.817ZM660.086 346.817L658.133 344.863L660.086 342.909L662.039 344.863L660.086 346.817ZM571.571 346.817L569.619 344.863L571.571 342.909L573.524 344.863L571.571 346.817ZM483.057 346.817L481.104 344.863L483.057 342.909L485.009 344.863L483.057 346.817ZM394.542 346.817L392.589 344.863L394.542 342.909L396.494 344.863L394.542 346.817ZM306.027 346.817L304.075 344.863L306.027 342.909L307.98 344.863L306.027 346.817ZM837.115 346.817L835.163 344.863L837.115 342.909L839.068 344.863L837.115 346.817ZM925.63 346.817L923.678 344.863L925.63 342.909L927.583 344.863L925.63 346.817ZM1014.14 346.817L1012.19 344.863L1014.14 342.909L1016.1 344.863L1014.14 346.817ZM1102.66 346.817L1100.71 344.863L1102.66 342.909L1104.61 344.863L1102.66 346.817ZM1191.17 346.817L1189.22 344.863L1191.17 342.909L1193.13 344.863L1191.17 346.817ZM748.601 436.698L746.648 434.744L748.601 432.79L750.553 434.744L748.601 436.698ZM660.086 436.698L658.133 434.744L660.086 432.79L662.039 434.744L660.086 436.698ZM571.571 436.698L569.619 434.744L571.571 432.79L573.524 434.744L571.571 436.698ZM483.057 436.698L481.104 434.744L483.057 432.79L485.009 434.744L483.057 436.698ZM394.542 436.698L392.589 434.744L394.542 432.79L396.494 434.744L394.542 436.698ZM306.027 436.698L304.075 434.744L306.027 432.79L307.98 434.744L306.027 436.698ZM837.115 436.698L835.163 434.744L837.115 432.79L839.068 434.744L837.115 436.698ZM925.63 436.698L923.678 434.744L925.63 432.79L927.583 434.744L925.63 436.698ZM1014.14 436.698L1012.19 434.744L1014.14 432.79L1016.1 434.744L1014.14 436.698ZM1102.66 436.698L1100.71 434.744L1102.66 432.79L1104.61 434.744L1102.66 436.698ZM1191.17 436.698L1189.22 434.744L1191.17 432.79L1193.13 434.744L1191.17 436.698ZM748.601 526.579L746.648 524.625L748.601 522.671L750.553 524.625L748.601 526.579ZM660.086 526.579L658.133 524.625L660.086 522.671L662.039 524.625L660.086 526.579ZM571.571 526.578L569.619 524.625L571.571 522.671L573.524 524.625L571.571 526.578ZM483.057 526.578L481.104 524.625L483.057 522.671L485.009 524.625L483.057 526.578ZM394.542 526.578L392.589 524.625L394.542 522.671L396.494 524.625L394.542 526.578ZM306.027 526.578L304.075 524.625L306.027 522.671L307.98 524.625L306.027 526.578ZM837.115 526.579L835.163 524.625L837.115 522.671L839.068 524.625L837.115 526.579ZM925.63 526.579L923.678 524.625L925.63 522.671L927.583 524.625L925.63 526.579ZM1014.14 526.579L1012.19 524.625L1014.14 522.671L1016.1 524.625L1014.14 526.579ZM1102.66 526.579L1100.71 524.625L1102.66 522.671L1104.61 524.625L1102.66 526.579ZM1191.17 526.579L1189.22 524.625L1191.17 522.671L1193.13 524.625L1191.17 526.579ZM748.601 616.459L746.648 614.506L748.601 612.552L750.553 614.506L748.601 616.459ZM660.086 616.459L658.133 614.506L660.086 612.552L662.039 614.506L660.086 616.459ZM571.571 616.459L569.619 614.506L571.571 612.552L573.524 614.506L571.571 616.459ZM483.057 616.459L481.104 614.506L483.057 612.552L485.009 614.506L483.057 616.459ZM394.542 616.459L392.589 614.506L394.542 612.552L396.494 614.506L394.542 616.459ZM306.027 616.459L304.075 614.506L306.027 612.552L307.98 614.506L306.027 616.459ZM837.115 616.459L835.163 614.506L837.115 612.552L839.068 614.506L837.115 616.459ZM925.63 616.459L923.678 614.506L925.63 612.552L927.583 614.506L925.63 616.459ZM1014.14 616.459L1012.19 614.506L1014.14 612.552L1016.1 614.506L1014.14 616.459ZM1102.66 616.459L1100.71 614.506L1102.66 612.552L1104.61 614.506L1102.66 616.459ZM1191.17 616.459L1189.22 614.506L1191.17 612.552L1193.13 614.506L1191.17 616.459ZM748.601 77.1738L746.648 75.2198L748.601 73.2659L750.553 75.2198L748.601 77.1738ZM660.086 77.1738L658.133 75.2198L660.086 73.2659L662.039 75.2198L660.086 77.1738ZM571.571 77.1738L569.619 75.2198L571.571 73.2659L573.524 75.2198L571.571 77.1738ZM483.057 77.1738L481.104 75.2198L483.057 73.2659L485.009 75.2198L483.057 77.1738ZM394.542 77.1737L392.589 75.2198L394.542 73.2659L396.494 75.2198L394.542 77.1737ZM306.027 77.1737L304.075 75.2198L306.027 73.2659L307.98 75.2198L306.027 77.1737ZM837.115 77.1738L835.163 75.2198L837.115 73.2659L839.068 75.2198L837.115 77.1738ZM925.63 77.1738L923.678 75.2198L925.63 73.2659L927.583 75.2198L925.63 77.1738ZM1014.14 77.1738L1012.19 75.2198L1014.14 73.2659L1016.1 75.2198L1014.14 77.1738ZM1102.66 77.1738L1100.71 75.2198L1102.66 73.2659L1104.61 75.2198L1102.66 77.1738ZM1191.17 77.1738L1189.22 75.2198L1191.17 73.2659L1193.13 75.2198L1191.17 77.1738ZM748.601 -12.7072L746.648 -14.6611L748.601 -16.6151L750.553 -14.6611L748.601 -12.7072ZM660.086 -12.7072L658.134 -14.6611L660.086 -16.6151L662.039 -14.6611L660.086 -12.7072ZM571.571 -12.7072L569.619 -14.6611L571.571 -16.6151L573.524 -14.6611L571.571 -12.7072ZM483.057 -12.7072L481.104 -14.6611L483.057 -16.6151L485.009 -14.6611L483.057 -12.7072ZM394.542 -12.7072L392.589 -14.6611L394.542 -16.6151L396.494 -14.6611L394.542 -12.7072ZM306.027 -12.7072L304.075 -14.6611L306.027 -16.6151L307.98 -14.6611L306.027 -12.7072ZM837.115 -12.7072L835.163 -14.6611L837.115 -16.615L839.068 -14.6611L837.115 -12.7072ZM925.63 -12.7072L923.678 -14.6611L925.63 -16.615L927.583 -14.6611L925.63 -12.7072ZM1014.14 -12.7072L1012.19 -14.6611L1014.14 -16.615L1016.1 -14.6611L1014.14 -12.7072ZM1102.66 -12.7072L1100.71 -14.6611L1102.66 -16.615L1104.61 -14.6611L1102.66 -12.7072ZM1191.17 -12.7072L1189.22 -14.6611L1191.17 -16.615L1193.13 -14.6611L1191.17 -12.7072ZM748.601 -102.588L746.648 -104.542L748.601 -106.496L750.553 -104.542L748.601 -102.588ZM660.086 -102.588L658.134 -104.542L660.086 -106.496L662.039 -104.542L660.086 -102.588ZM571.571 -102.588L569.619 -104.542L571.571 -106.496L573.524 -104.542L571.571 -102.588ZM483.057 -102.588L481.104 -104.542L483.057 -106.496L485.009 -104.542L483.057 -102.588ZM394.542 -102.588L392.589 -104.542L394.542 -106.496L396.494 -104.542L394.542 -102.588ZM306.027 -102.588L304.075 -104.542L306.027 -106.496L307.98 -104.542L306.027 -102.588ZM837.115 -102.588L835.163 -104.542L837.115 -106.496L839.068 -104.542L837.115 -102.588ZM925.63 -102.588L923.678 -104.542L925.63 -106.496L927.583 -104.542L925.63 -102.588ZM1014.14 -102.588L1012.19 -104.542L1014.14 -106.496L1016.1 -104.542L1014.14 -102.588ZM1102.66 -102.588L1100.71 -104.542L1102.66 -106.496L1104.61 -104.542L1102.66 -102.588ZM1191.17 -102.588L1189.22 -104.542L1191.17 -106.496L1193.13 -104.542L1191.17 -102.588ZM748.601 -192.469L746.648 -194.423L748.601 -196.377L750.553 -194.423L748.601 -192.469ZM660.086 -192.469L658.134 -194.423L660.086 -196.377L662.039 -194.423L660.086 -192.469ZM571.571 -192.469L569.619 -194.423L571.571 -196.377L573.524 -194.423L571.571 -192.469ZM483.057 -192.469L481.104 -194.423L483.057 -196.377L485.009 -194.423L483.057 -192.469ZM394.542 -192.469L392.589 -194.423L394.542 -196.377L396.494 -194.423L394.542 -192.469ZM306.027 -192.469L304.075 -194.423L306.027 -196.377L307.98 -194.423L306.027 -192.469ZM837.115 -192.469L835.163 -194.423L837.115 -196.377L839.068 -194.423L837.115 -192.469ZM925.63 -192.469L923.678 -194.423L925.63 -196.377L927.583 -194.423L925.63 -192.469ZM1014.14 -192.469L1012.19 -194.423L1014.14 -196.377L1016.1 -194.423L1014.14 -192.469ZM1102.66 -192.469L1100.71 -194.423L1102.66 -196.377L1104.61 -194.423L1102.66 -192.469ZM1191.17 -192.469L1189.22 -194.423L1191.17 -196.377L1193.13 -194.423L1191.17 -192.469ZM748.601 -282.35L746.648 -284.304L748.601 -286.258L750.553 -284.304L748.601 -282.35ZM660.086 -282.35L658.134 -284.304L660.086 -286.258L662.039 -284.304L660.086 -282.35ZM571.571 -282.35L569.619 -284.304L571.571 -286.258L573.524 -284.304L571.571 -282.35ZM483.057 -282.35L481.104 -284.304L483.057 -286.258L485.009 -284.304L483.057 -282.35ZM394.542 -282.35L392.589 -284.304L394.542 -286.258L396.494 -284.304L394.542 -282.35ZM306.027 -282.35L304.075 -284.304L306.027 -286.258L307.98 -284.304L306.027 -282.35ZM837.115 -282.35L835.163 -284.304L837.115 -286.258L839.068 -284.304L837.115 -282.35ZM925.63 -282.35L923.678 -284.304L925.63 -286.258L927.583 -284.304L925.63 -282.35ZM1014.14 -282.35L1012.19 -284.304L1014.14 -286.258L1016.1 -284.304L1014.14 -282.35ZM1102.66 -282.35L1100.71 -284.304L1102.66 -286.258L1104.61 -284.304L1102.66 -282.35ZM1191.17 -282.35L1189.22 -284.304L1191.17 -286.258L1193.13 -284.304L1191.17 -282.35Z" fill="url(#paint1_linear_431_1459)"/>
<path d="M261.77 297.318L259.167 299.923L261.77 302.528L264.374 299.923L261.77 297.318ZM1238.04 389.804L1235.43 392.409L1232.83 389.804L1235.43 387.199L1238.04 389.804ZM1238.04 479.685L1235.43 482.29L1232.83 479.685L1235.43 477.08L1238.04 479.685ZM1149.52 389.804L1146.92 392.409L1144.31 389.804L1146.92 387.199L1149.52 389.804ZM1061.01 389.804L1058.4 392.409L1055.8 389.804L1058.4 387.199L1061.01 389.804ZM529.918 299.923L527.315 302.528L524.711 299.923L527.315 297.318L529.918 299.923ZM441.403 299.923L438.8 302.528L436.196 299.923L438.8 297.318L441.403 299.923ZM352.888 389.804L350.285 392.409L347.682 389.804L350.285 387.199L352.888 389.804ZM618.433 299.923L615.829 302.528L613.226 299.923L615.829 297.318L618.433 299.923ZM441.403 389.804L438.8 392.409L436.196 389.804L438.8 387.199L441.403 389.804ZM264.374 389.804L261.77 392.409L259.167 389.804L261.77 387.199L264.374 389.804ZM529.918 389.804L527.315 392.409L524.711 389.804L527.315 387.199L529.918 389.804ZM883.977 389.804L881.373 392.409L878.77 389.804L881.373 387.199L883.977 389.804ZM795.462 389.804L792.859 392.409L790.255 389.804L792.859 387.199L795.462 389.804ZM706.947 389.804L704.344 392.409L701.741 389.804L704.344 387.199L706.947 389.804ZM618.433 389.804L615.829 392.409L613.226 389.804L615.829 387.199L618.433 389.804ZM972.492 389.804L969.888 392.409L967.285 389.804L969.888 387.199L972.492 389.804ZM795.462 210.042L792.859 212.647L790.255 210.042L792.859 207.437L795.462 210.042ZM706.947 210.042L704.344 212.647L701.741 210.042L704.344 207.437L706.947 210.042ZM618.433 210.042L615.829 212.647L613.226 210.042L615.829 207.437L618.433 210.042ZM441.403 210.042L438.8 212.647L436.196 210.042L438.8 207.437L441.403 210.042ZM529.918 210.042L527.315 212.647L524.711 210.042L527.315 207.437L529.918 210.042ZM1061.01 210.042L1058.4 212.647L1055.8 210.042L1058.4 207.437L1061.01 210.042ZM883.977 210.042L881.373 212.647L878.77 210.042L881.373 207.437L883.977 210.042ZM972.492 210.042L969.888 212.647L967.285 210.042L969.888 207.437L972.492 210.042ZM264.374 210.042L261.77 212.647L259.167 210.042L261.77 207.437L264.374 210.042ZM972.492 299.923L969.888 302.528L967.285 299.923L969.888 297.318L972.492 299.923ZM1061.01 299.923L1058.4 302.528L1055.8 299.923L1058.4 297.318L1061.01 299.923ZM883.977 299.923L881.373 302.528L878.77 299.923L881.373 297.318L883.977 299.923ZM795.462 299.923L792.859 302.528L790.255 299.923L792.859 297.318L795.462 299.923ZM1238.04 299.923L1235.43 302.528L1232.83 299.923L1235.43 297.318L1238.04 299.923ZM706.947 299.923L704.344 302.528L701.741 299.923L704.344 297.318L706.947 299.923ZM352.889 210.042L350.285 212.647L347.682 210.042L350.285 207.437L352.889 210.042ZM883.977 659.447L881.373 662.052L878.77 659.447L881.373 656.842L883.977 659.447ZM264.374 569.566L261.77 572.171L259.167 569.566L261.77 566.961L264.374 569.566ZM972.491 659.447L969.888 662.052L967.285 659.447L969.888 656.842L972.491 659.447ZM1149.52 659.447L1146.92 662.052L1144.31 659.447L1146.92 656.842L1149.52 659.447ZM1149.52 479.685L1146.92 482.29L1144.31 479.685L1146.92 477.08L1149.52 479.685ZM1238.04 659.447L1235.43 662.052L1232.83 659.447L1235.43 656.842L1238.04 659.447ZM529.918 569.566L527.315 572.171L524.711 569.566L527.315 566.961L529.918 569.566ZM441.403 569.566L438.8 572.171L436.196 569.566L438.8 566.961L441.403 569.566ZM1232.83 -329.243L1235.43 -331.849L1238.04 -329.243L1235.43 -326.638L1232.83 -329.243ZM264.374 659.447L261.77 662.052L259.167 659.447L261.77 656.842L264.374 659.447ZM352.888 659.447L350.285 662.052L347.682 659.447L350.285 656.842L352.888 659.447ZM529.918 659.447L527.315 662.052L524.711 659.447L527.315 656.842L529.918 659.447ZM618.433 659.447L615.829 662.052L613.226 659.447L615.829 656.842L618.433 659.447ZM795.462 659.447L792.859 662.052L790.255 659.447L792.859 656.842L795.462 659.447ZM706.947 659.447L704.344 662.052L701.741 659.447L704.344 656.842L706.947 659.447ZM1149.52 210.042L1146.92 212.648L1144.31 210.042L1146.92 207.437L1149.52 210.042ZM1061.01 659.447L1058.4 662.052L1055.8 659.447L1058.4 656.842L1061.01 659.447ZM441.403 479.685L438.8 482.29L436.196 479.685L438.8 477.08L441.403 479.685ZM706.947 479.685L704.344 482.29L701.741 479.685L704.344 477.08L706.947 479.685ZM618.433 479.685L615.829 482.29L613.226 479.685L615.829 477.08L618.433 479.685ZM529.918 479.685L527.315 482.29L524.711 479.685L527.315 477.08L529.918 479.685ZM795.462 479.685L792.859 482.29L790.255 479.685L792.859 477.08L795.462 479.685ZM706.947 569.566L704.344 572.171L701.741 569.566L704.344 566.961L706.947 569.566ZM972.492 479.685L969.888 482.29L967.285 479.685L969.888 477.08L972.492 479.685ZM883.977 479.685L881.373 482.29L878.77 479.685L881.373 477.08L883.977 479.685ZM1061.01 479.685L1058.4 482.29L1055.8 479.685L1058.4 477.08L1061.01 479.685ZM1061.01 569.566L1058.4 572.171L1055.8 569.566L1058.4 566.961L1061.01 569.566ZM352.888 479.685L350.285 482.29L347.682 479.685L350.285 477.08L352.888 479.685ZM795.462 569.566L792.859 572.171L790.255 569.566L792.859 566.961L795.462 569.566ZM972.492 569.566L969.888 572.171L967.285 569.566L969.888 566.961L972.492 569.566ZM264.374 479.685L261.77 482.29L259.167 479.685L261.77 477.08L264.374 479.685ZM1238.04 569.566L1235.43 572.171L1232.83 569.566L1235.43 566.961L1238.04 569.566ZM441.403 659.447L438.8 662.052L436.196 659.447L438.8 656.842L441.403 659.447ZM1149.52 -149.482L1146.92 -146.876L1144.31 -149.482L1146.92 -152.087L1149.52 -149.482ZM972.492 -149.482L969.888 -146.876L967.285 -149.482L969.888 -152.087L972.492 -149.482ZM264.374 -239.363L261.77 -236.757L259.167 -239.363L261.77 -241.968L264.374 -239.363ZM1061.01 -149.482L1058.4 -146.876L1055.8 -149.482L1058.4 -152.087L1061.01 -149.482ZM1238.04 -149.482L1235.43 -146.876L1232.83 -149.482L1235.43 -152.087L1238.04 -149.482ZM706.947 -239.363L704.344 -236.757L701.741 -239.363L704.344 -241.968L706.947 -239.363ZM1238.04 -59.6006L1235.43 -56.9953L1232.83 -59.6006L1235.43 -62.2058L1238.04 -59.6006ZM529.918 -239.363L527.315 -236.757L524.711 -239.363L527.315 -241.968L529.918 -239.363ZM883.977 -149.482L881.373 -146.876L878.77 -149.482L881.373 -152.087L883.977 -149.482ZM529.918 -149.482L527.315 -146.876L524.711 -149.482L527.315 -152.087L529.918 -149.482ZM441.403 -149.482L438.8 -146.876L436.196 -149.482L438.8 -152.087L441.403 -149.482ZM264.374 -149.482L261.77 -146.876L259.167 -149.482L261.77 -152.087L264.374 -149.482ZM352.889 -149.482L350.285 -146.876L347.682 -149.482L350.285 -152.087L352.889 -149.482ZM795.462 -149.482L792.859 -146.876L790.255 -149.482L792.859 -152.087L795.462 -149.482ZM706.947 -149.482L704.344 -146.876L701.741 -149.482L704.344 -152.087L706.947 -149.482ZM618.433 -149.482L615.829 -146.876L613.226 -149.482L615.829 -152.087L618.433 -149.482ZM441.403 -239.363L438.8 -236.757L436.196 -239.363L438.8 -241.968L441.403 -239.363ZM706.947 -329.243L704.344 -326.638L701.741 -329.243L704.344 -331.849L706.947 -329.243ZM795.462 -329.243L792.859 -326.638L790.255 -329.243L792.859 -331.849L795.462 -329.243ZM618.433 -329.243L615.829 -326.638L613.226 -329.243L615.829 -331.849L618.433 -329.243ZM883.977 -329.243L881.373 -326.638L878.77 -329.243L881.373 -331.849L883.977 -329.243ZM1061.01 -329.243L1058.4 -326.638L1055.8 -329.243L1058.4 -331.849L1061.01 -329.243ZM972.492 -329.243L969.888 -326.638L967.285 -329.243L969.888 -331.849L972.492 -329.243ZM1149.52 -329.243L1146.92 -326.638L1144.31 -329.243L1146.92 -331.849L1149.52 -329.243ZM529.918 -329.243L527.315 -326.638L524.711 -329.243L527.315 -331.849L529.918 -329.243ZM795.462 -239.362L792.859 -236.757L790.255 -239.363L792.859 -241.968L795.462 -239.362ZM1061.01 -239.362L1058.4 -236.757L1055.8 -239.362L1058.4 -241.968L1061.01 -239.362ZM972.492 -239.362L969.888 -236.757L967.285 -239.362L969.888 -241.968L972.492 -239.362ZM441.403 -329.243L438.8 -326.638L436.196 -329.243L438.8 -331.849L441.403 -329.243ZM352.889 -329.243L350.285 -326.638L347.682 -329.243L350.285 -331.849L352.889 -329.243ZM264.374 -329.243L261.77 -326.638L259.167 -329.243L261.77 -331.849L264.374 -329.243ZM1238.04 -239.362L1235.43 -236.757L1232.83 -239.362L1235.43 -241.968L1238.04 -239.362ZM529.918 120.161L527.315 122.767L524.711 120.161L527.315 117.556L529.918 120.161ZM972.492 120.161L969.888 122.767L967.285 120.161L969.888 117.556L972.492 120.161ZM1238.04 120.161L1235.43 122.767L1232.83 120.161L1235.43 117.556L1238.04 120.161ZM1061.01 120.161L1058.4 122.767L1055.8 120.161L1058.4 117.556L1061.01 120.161ZM618.433 30.2803L615.829 32.8856L613.226 30.2803L615.829 27.6751L618.433 30.2803ZM1149.52 120.161L1146.92 122.767L1144.31 120.161L1146.92 117.556L1149.52 120.161ZM529.918 30.2803L527.315 32.8856L524.711 30.2803L527.315 27.6751L529.918 30.2803ZM441.403 30.2803L438.8 32.8856L436.196 30.2803L438.8 27.6751L441.403 30.2803ZM264.374 30.2803L261.77 32.8856L259.167 30.2803L261.77 27.6751L264.374 30.2803ZM883.977 120.161L881.373 122.767L878.77 120.161L881.373 117.556L883.977 120.161ZM1238.04 210.042L1235.43 212.648L1232.83 210.042L1235.43 207.437L1238.04 210.042ZM352.889 120.161L350.285 122.767L347.682 120.161L350.285 117.556L352.889 120.161ZM264.374 120.161L261.77 122.767L259.167 120.161L261.77 117.556L264.374 120.161ZM441.403 120.161L438.8 122.767L436.196 120.161L438.8 117.556L441.403 120.161ZM618.433 120.161L615.829 122.767L613.226 120.161L615.829 117.556L618.433 120.161ZM795.462 120.161L792.859 122.767L790.255 120.161L792.859 117.556L795.462 120.161ZM706.947 120.161L704.344 122.767L701.741 120.161L704.344 117.556L706.947 120.161ZM264.374 -59.6006L261.77 -56.9954L259.167 -59.6006L261.77 -62.2059L264.374 -59.6006ZM795.462 -59.6006L792.859 -56.9954L790.255 -59.6006L792.859 -62.2058L795.462 -59.6006ZM706.947 -59.6006L704.344 -56.9954L701.741 -59.6006L704.344 -62.2059L706.947 -59.6006ZM618.433 -59.6006L615.829 -56.9954L613.226 -59.6006L615.829 -62.2059L618.433 -59.6006ZM529.918 -59.6006L527.315 -56.9954L524.711 -59.6006L527.315 -62.2059L529.918 -59.6006ZM1061.01 -59.6006L1058.4 -56.9953L1055.8 -59.6006L1058.4 -62.2058L1061.01 -59.6006ZM441.403 -59.6006L438.8 -56.9954L436.196 -59.6006L438.8 -62.2059L441.403 -59.6006ZM972.492 -59.6006L969.888 -56.9954L967.285 -59.6006L969.888 -62.2058L972.492 -59.6006ZM883.977 -59.6006L881.373 -56.9954L878.77 -59.6006L881.373 -62.2058L883.977 -59.6006ZM795.462 30.2803L792.859 32.8856L790.255 30.2803L792.859 27.6751L795.462 30.2803ZM972.492 30.2804L969.888 32.8856L967.285 30.2804L969.888 27.6751L972.492 30.2804ZM1061.01 30.2804L1058.4 32.8856L1055.8 30.2804L1058.4 27.6751L1061.01 30.2804ZM883.977 30.2803L881.373 32.8856L878.77 30.2803L881.373 27.6751L883.977 30.2803ZM706.947 30.2803L704.344 32.8856L701.741 30.2803L704.344 27.6751L706.947 30.2803ZM1238.04 30.2804L1235.43 32.8856L1232.83 30.2804L1235.43 27.6751L1238.04 30.2804ZM1149.52 -59.6006L1146.92 -56.9953L1144.31 -59.6006L1146.92 -62.2058L1149.52 -59.6006ZM352.889 -59.6006L350.285 -56.9954L347.682 -59.6006L350.285 -62.2059L352.889 -59.6006Z" fill="url(#paint2_linear_431_1459)"/>
<g filter="url(#filter0_bf_431_1459)">
<path d="M-419.969 153.566C-458.29 81.2234 -318.918 107.217 -169.065 27.836C-19.2123 -51.545 84.3753 -206.241 122.697 -133.898C161.019 -61.5551 70.6052 61.4414 -79.2478 140.822C-229.101 220.203 -381.647 225.909 -419.969 153.566Z" fill="#D736AA"/>
</g>
<g filter="url(#filter1_bf_431_1459)">
<path d="M1402.05 447.606C1440.38 375.263 1301 401.257 1151.15 321.876C1001.3 242.495 897.71 87.7989 859.388 160.142C821.066 232.484 911.48 355.481 1061.33 434.862C1211.19 514.243 1363.73 519.949 1402.05 447.606Z" fill="#9036D7"/>
</g>
<g filter="url(#filter2_bf_431_1459)">
<path d="M1338.58 462.005C1376.9 389.662 1237.53 415.656 1087.67 336.275C937.822 256.894 834.234 102.198 795.913 174.541C757.591 246.884 848.005 369.88 997.857 449.261C1147.71 528.642 1300.26 534.348 1338.58 462.005Z" fill="#9036D7"/>
</g>
<g filter="url(#filter3_bf_431_1459)">
<path d="M273.652 462.005C235.33 389.662 374.702 415.656 524.555 336.275C674.408 256.894 777.996 102.198 816.318 174.541C854.64 246.884 764.226 369.88 614.373 449.261C464.52 528.642 311.974 534.348 273.652 462.005Z" fill="#2D3546"/>
</g>
</g>
<defs>
<filter id="filter0_bf_431_1459" x="-631.087" y="-357.351" width="967.276" height="766.345" filterUnits="userSpaceOnUse" color-interpolation-filters="sRGB">
<feFlood flood-opacity="0" result="BackgroundImageFix"/>
<feGaussianBlur in="BackgroundImage" stdDeviation="34.1154"/>
<feComposite in2="SourceAlpha" operator="in" result="effect1_backgroundBlur_431_1459"/>
<feBlend mode="normal" in="SourceGraphic" in2="effect1_backgroundBlur_431_1459" result="shape"/>
<feGaussianBlur stdDeviation="102.346" result="effect2_foregroundBlur_431_1459"/>
</filter>
<filter id="filter1_bf_431_1459" x="645.896" y="-63.3117" width="967.276" height="766.345" filterUnits="userSpaceOnUse" color-interpolation-filters="sRGB">
<feFlood flood-opacity="0" result="BackgroundImageFix"/>
<feGaussianBlur in="BackgroundImage" stdDeviation="34.1154"/>
<feComposite in2="SourceAlpha" operator="in" result="effect1_backgroundBlur_431_1459"/>
<feBlend mode="normal" in="SourceGraphic" in2="effect1_backgroundBlur_431_1459" result="shape"/>
<feGaussianBlur stdDeviation="102.346" result="effect2_foregroundBlur_431_1459"/>
</filter>
<filter id="filter2_bf_431_1459" x="582.421" y="-48.9123" width="967.276" height="766.345" filterUnits="userSpaceOnUse" color-interpolation-filters="sRGB">
<feFlood flood-opacity="0" result="BackgroundImageFix"/>
<feGaussianBlur in="BackgroundImage" stdDeviation="34.1154"/>
<feComposite in2="SourceAlpha" operator="in" result="effect1_backgroundBlur_431_1459"/>
<feBlend mode="normal" in="SourceGraphic" in2="effect1_backgroundBlur_431_1459" result="shape"/>
<feGaussianBlur stdDeviation="102.346" result="effect2_foregroundBlur_431_1459"/>
</filter>
<filter id="filter3_bf_431_1459" x="62.5337" y="-48.9123" width="967.276" height="766.345" filterUnits="userSpaceOnUse" color-interpolation-filters="sRGB">
<feFlood flood-opacity="0" result="BackgroundImageFix"/>
<feGaussianBlur in="BackgroundImage" stdDeviation="34.1154"/>
<feComposite in2="SourceAlpha" operator="in" result="effect1_backgroundBlur_431_1459"/>
<feBlend mode="normal" in="SourceGraphic" in2="effect1_backgroundBlur_431_1459" result="shape"/>
<feGaussianBlur stdDeviation="102.346" result="effect2_foregroundBlur_431_1459"/>
</filter>
<linearGradient id="paint0_linear_431_1459" x1="900.193" y1="49.1683" x2="586.261" y2="260.068" gradientUnits="userSpaceOnUse">
<stop stop-color="#3D4860"/>
<stop offset="1" stop-color="#394868" stop-opacity="0"/>
<stop offset="1" stop-color="#242D4D" stop-opacity="0"/>
</linearGradient>
<linearGradient id="paint1_linear_431_1459" x1="886.939" y1="59.3307" x2="600.488" y2="251.779" gradientUnits="userSpaceOnUse">
<stop stop-color="#3D4860"/>
<stop offset="1" stop-color="#394868" stop-opacity="0"/>
<stop offset="1" stop-color="#242D4D" stop-opacity="0"/>
</linearGradient>
<linearGradient id="paint2_linear_431_1459" x1="900.915" y1="48.6479" x2="585.528" y2="260.539" gradientUnits="userSpaceOnUse">
<stop stop-color="#3D4860"/>
<stop offset="1" stop-color="#394868" stop-opacity="0"/>
<stop offset="1" stop-color="#242D4D" stop-opacity="0"/>
</linearGradient>
</defs>
</svg>