<svg width="1440" height="204" viewBox="0 0 1440 204" fill="none" xmlns="http://www.w3.org/2000/svg">
<g filter="url(#filter0_d_2032_57316)">
<g filter="url(#filter1_ii_2032_57316)">
<path d="M226.369 114.009C227.016 112.909 226.971 111.527 226.255 110.456C225.538 109.385 224.284 108.826 223.015 108.994L211.62 109.479C209.507 109.569 207.445 108.819 205.884 107.393L197.582 99.8091C196.727 98.8689 195.416 98.4861 194.202 98.8319C192.988 99.1776 192.06 100.176 191.823 101.419L188.414 111.987C187.842 113.76 186.668 115.278 185.097 116.279L175.344 122.489C175.022 122.693 174.677 122.862 174.361 123.076C173.486 123.669 172.929 124.656 172.895 125.737C172.855 127.011 173.54 128.204 174.664 128.813L184.58 133.335C187.168 134.515 188.935 136.982 189.22 139.812L190.285 150.388C190.419 151.66 191.252 152.754 192.453 153.197C193.655 153.641 194.996 153.374 195.922 152.503L204.105 144.757C206.001 142.961 208.655 142.204 211.214 142.73L222.149 144.976C223.388 145.231 224.671 144.763 225.448 143.765C226.225 142.766 226.378 141.416 225.835 140.267L221.088 130.275C219.971 127.924 220.068 125.177 221.347 122.911L226.369 114.009Z" fill="url(#paint0_linear_2032_57316)"/>
</g>
<g opacity="0.7" filter="url(#filter2_f_2032_57316)">
<path d="M204.922 111.077L196.782 102.909L205.126 118.138L217.559 111.376L204.922 111.077Z" fill="white"/>
</g>
</g>
<g filter="url(#filter3_d_2032_57316)">
<g filter="url(#filter4_ii_2032_57316)">
<path d="M332.582 68.5877C333.304 68.1864 333.732 67.4016 333.684 66.5696C333.636 65.7375 333.121 65.0139 332.358 64.6913L326.875 61.7702C325.008 60.776 323.612 59.0835 322.99 57.0626L321.193 51.2245C321.025 50.4197 320.42 49.7759 319.629 49.5704C318.839 49.3648 317.994 49.6171 317.455 50.2319L312.846 54.3286C311.454 55.5666 309.673 56.2796 307.81 56.3448L301.555 56.5635C301.174 56.5768 300.788 56.5378 300.411 56.5978C299.807 56.694 299.258 57.0449 298.922 57.5778C298.481 58.2751 298.472 59.1647 298.898 59.8732L302.012 64.3194C303.644 66.6497 303.915 69.6714 302.725 72.2554L300.527 77.0278C300.184 77.7805 300.289 78.6635 300.814 79.3053C301.338 79.947 302.174 80.2382 302.975 80.0562L308.645 78.7528C311.191 78.1676 313.861 78.8618 315.8 80.6124L320.067 84.467C320.674 85.0157 321.543 85.176 322.304 84.8743C323.065 84.5725 323.593 83.8702 323.667 83.0514L324.17 77.3829C324.4 74.7906 325.877 72.4722 328.129 71.1677L332.582 68.5877Z" fill="url(#paint1_linear_2032_57316)"/>
</g>
<g opacity="0.9" filter="url(#filter5_f_2032_57316)">
<path d="M321.588 59.9148L319.73 52.6904L319.384 63.9181L328.535 64.2288L321.588 59.9148Z" fill="white"/>
</g>
</g>
<g filter="url(#filter6_f_2032_57316)">
<g filter="url(#filter7_ii_2032_57316)">
<path d="M129.555 72.5988C129.983 72.3213 130.214 71.8196 130.149 71.3088C130.085 70.798 129.737 70.3736 129.253 70.2068L124.643 68.1394C124.161 67.9231 123.784 67.5246 123.594 67.0311L121.807 62.3747C121.67 61.8857 121.27 61.5143 120.774 61.4207C120.279 61.3271 119.768 61.5181 119.461 61.9196L116.05 65.3944C115.724 65.7268 115.292 65.9348 114.828 65.9827L109.718 66.5102C109.623 66.52 109.527 66.5204 109.432 66.5269C108.979 66.5575 108.566 66.8184 108.347 67.2241C108.105 67.6724 108.136 68.2211 108.429 68.6398L111.595 72.5647C112.042 73.1183 112.161 73.8673 111.908 74.532L110.152 79.1446C109.972 79.6229 110.074 80.1627 110.424 80.5363C110.774 80.9098 111.301 81.0542 111.788 80.9085L116.695 79.4235C117.32 79.2343 117.997 79.3622 118.511 79.7659L122.507 82.9104C122.904 83.2232 123.446 83.2856 123.903 83.0677C124.359 82.8498 124.655 82.3948 124.667 81.8871L124.77 76.8461C124.784 76.1956 125.113 75.5923 125.652 75.2287L129.555 72.5988Z" fill="url(#paint2_linear_2032_57316)"/>
</g>
<g opacity="0.2" filter="url(#filter8_f_2032_57316)">
<path d="M122.414 67.7145L120.967 63.3397L121.224 70.2743L126.877 70.0821L122.414 67.7145Z" fill="white"/>
</g>
</g>
<g filter="url(#filter9_d_2032_57316)">
<g filter="url(#filter10_ii_2032_57316)">
<path d="M1213.63 114.009C1212.98 112.909 1213.03 111.527 1213.75 110.456C1214.46 109.385 1215.72 108.826 1216.99 108.994L1228.38 109.479C1230.49 109.569 1232.56 108.819 1234.12 107.393L1242.42 99.8091C1243.27 98.8689 1244.58 98.4861 1245.8 98.8319C1247.01 99.1776 1247.94 100.176 1248.18 101.419L1251.59 111.987C1252.16 113.76 1253.33 115.278 1254.9 116.279L1264.66 122.489C1264.98 122.693 1265.32 122.862 1265.64 123.076C1266.51 123.669 1267.07 124.656 1267.1 125.737C1267.14 127.011 1266.46 128.204 1265.34 128.813L1255.42 133.335C1252.83 134.515 1251.06 136.982 1250.78 139.812L1249.71 150.388C1249.58 151.66 1248.75 152.754 1247.55 153.197C1246.35 153.641 1245 153.374 1244.08 152.503L1235.9 144.757C1234 142.961 1231.34 142.204 1228.79 142.73L1217.85 144.976C1216.61 145.231 1215.33 144.763 1214.55 143.765C1213.77 142.766 1213.62 141.416 1214.16 140.267L1218.91 130.275C1220.03 127.924 1219.93 125.177 1218.65 122.911L1213.63 114.009Z" fill="url(#paint3_linear_2032_57316)"/>
</g>
<g opacity="0.7" filter="url(#filter11_f_2032_57316)">
<path d="M1235.08 111.077L1243.22 102.909L1234.87 118.138L1222.44 111.376L1235.08 111.077Z" fill="white"/>
</g>
</g>
<g filter="url(#filter12_d_2032_57316)">
<g filter="url(#filter13_ii_2032_57316)">
<path d="M1107.42 68.5877C1106.7 68.1864 1106.27 67.4016 1106.32 66.5696C1106.36 65.7375 1106.88 65.0139 1107.64 64.6913L1113.13 61.7702C1114.99 60.776 1116.39 59.0835 1117.01 57.0626L1118.81 51.2245C1118.97 50.4197 1119.58 49.7759 1120.37 49.5704C1121.16 49.3648 1122.01 49.6171 1122.55 50.2319L1127.15 54.3286C1128.55 55.5666 1130.33 56.2796 1132.19 56.3448L1138.44 56.5635C1138.83 56.5768 1139.21 56.5378 1139.59 56.5978C1140.19 56.694 1140.74 57.0449 1141.08 57.5778C1141.52 58.2751 1141.53 59.1647 1141.1 59.8732L1137.99 64.3194C1136.36 66.6497 1136.08 69.6714 1137.27 72.2554L1139.47 77.0278C1139.82 77.7805 1139.71 78.6635 1139.19 79.3053C1138.66 79.947 1137.83 80.2382 1137.02 80.0562L1131.35 78.7528C1128.81 78.1676 1126.14 78.8618 1124.2 80.6124L1119.93 84.467C1119.33 85.0157 1118.46 85.176 1117.7 84.8743C1116.94 84.5725 1116.41 83.8702 1116.33 83.0514L1115.83 77.3829C1115.6 74.7906 1114.12 72.4722 1111.87 71.1677L1107.42 68.5877Z" fill="url(#paint4_linear_2032_57316)"/>
</g>
<g opacity="0.9" filter="url(#filter14_f_2032_57316)">
<path d="M1118.41 59.9148L1120.27 52.6904L1120.62 63.9181L1111.47 64.2288L1118.41 59.9148Z" fill="white"/>
</g>
</g>
<g filter="url(#filter15_f_2032_57316)">
<g filter="url(#filter16_ii_2032_57316)">
<path d="M1310.45 72.5988C1310.02 72.3213 1309.79 71.8196 1309.85 71.3088C1309.92 70.798 1310.26 70.3736 1310.75 70.2068L1315.36 68.1394C1315.84 67.9231 1316.22 67.5246 1316.41 67.0311L1318.19 62.3747C1318.33 61.8857 1318.73 61.5143 1319.23 61.4207C1319.72 61.3271 1320.23 61.5181 1320.54 61.9196L1323.95 65.3944C1324.28 65.7268 1324.71 65.9348 1325.17 65.9827L1330.28 66.5102C1330.38 66.52 1330.47 66.5204 1330.57 66.5269C1331.02 66.5575 1331.43 66.8184 1331.65 67.2241C1331.9 67.6724 1331.86 68.2211 1331.57 68.6398L1328.41 72.5647C1327.96 73.1183 1327.84 73.8673 1328.09 74.532L1329.85 79.1446C1330.03 79.6229 1329.93 80.1627 1329.58 80.5363C1329.23 80.9098 1328.7 81.0542 1328.21 80.9085L1323.31 79.4235C1322.68 79.2343 1322 79.3622 1321.49 79.7659L1317.49 82.9104C1317.1 83.2232 1316.55 83.2856 1316.1 83.0677C1315.64 82.8498 1315.35 82.3948 1315.33 81.8871L1315.23 76.8461C1315.22 76.1956 1314.89 75.5923 1314.35 75.2287L1310.45 72.5988Z" fill="url(#paint5_linear_2032_57316)"/>
</g>
<g opacity="0.2" filter="url(#filter17_f_2032_57316)">
<path d="M1317.59 67.7145L1319.03 63.3397L1318.78 70.2743L1313.12 70.0821L1317.59 67.7145Z" fill="white"/>
</g>
</g>
<defs>
<filter id="filter0_d_2032_57316" x="171.694" y="98.7065" width="86.3312" height="91.9019" filterUnits="userSpaceOnUse" color-interpolation-filters="sRGB">
<feFlood flood-opacity="0" result="BackgroundImageFix"/>
<feColorMatrix in="SourceAlpha" type="matrix" values="0 0 0 0 0 0 0 0 0 0 0 0 0 0 0 0 0 0 127 0" result="hardAlpha"/>
<feOffset dx="15" dy="21"/>
<feGaussianBlur stdDeviation="8.1"/>
<feComposite in2="hardAlpha" operator="out"/>
<feColorMatrix type="matrix" values="0 0 0 0 0.996078 0 0 0 0 0.835294 0 0 0 0 0.294118 0 0 0 0.1 0"/>
<feBlend mode="normal" in2="BackgroundImageFix" result="effect1_dropShadow_2032_57316"/>
<feBlend mode="normal" in="SourceGraphic" in2="effect1_dropShadow_2032_57316" result="shape"/>
</filter>
<filter id="filter1_ii_2032_57316" x="165.894" y="96.7065" width="64.9312" height="61.1019" filterUnits="userSpaceOnUse" color-interpolation-filters="sRGB">
<feFlood flood-opacity="0" result="BackgroundImageFix"/>
<feBlend mode="normal" in="SourceGraphic" in2="BackgroundImageFix" result="shape"/>
<feColorMatrix in="SourceAlpha" type="matrix" values="0 0 0 0 0 0 0 0 0 0 0 0 0 0 0 0 0 0 127 0" result="hardAlpha"/>
<feOffset dx="-7" dy="-2"/>
<feGaussianBlur stdDeviation="4.3"/>
<feComposite in2="hardAlpha" operator="arithmetic" k2="-1" k3="1"/>
<feColorMatrix type="matrix" values="0 0 0 0 0.817497 0 0 0 0 0.573012 0 0 0 0 0 0 0 0 1 0"/>
<feBlend mode="normal" in2="shape" result="effect1_innerShadow_2032_57316"/>
<feColorMatrix in="SourceAlpha" type="matrix" values="0 0 0 0 0 0 0 0 0 0 0 0 0 0 0 0 0 0 127 0" result="hardAlpha"/>
<feOffset dx="4" dy="8"/>
<feGaussianBlur stdDeviation="2.2"/>
<feComposite in2="hardAlpha" operator="arithmetic" k2="-1" k3="1"/>
<feColorMatrix type="matrix" values="0 0 0 0 1 0 0 0 0 1 0 0 0 0 1 0 0 0 0.25 0"/>
<feBlend mode="normal" in2="effect1_innerShadow_2032_57316" result="effect2_innerShadow_2032_57316"/>
</filter>
<filter id="filter2_f_2032_57316" x="192.782" y="98.9094" width="28.7773" height="23.228" filterUnits="userSpaceOnUse" color-interpolation-filters="sRGB">
<feFlood flood-opacity="0" result="BackgroundImageFix"/>
<feBlend mode="normal" in="SourceGraphic" in2="BackgroundImageFix" result="shape"/>
<feGaussianBlur stdDeviation="2" result="effect1_foregroundBlur_2032_57316"/>
</filter>
<filter id="filter3_d_2032_57316" x="297.384" y="49.5" width="67.5035" height="72.7247" filterUnits="userSpaceOnUse" color-interpolation-filters="sRGB">
<feFlood flood-opacity="0" result="BackgroundImageFix"/>
<feColorMatrix in="SourceAlpha" type="matrix" values="0 0 0 0 0 0 0 0 0 0 0 0 0 0 0 0 0 0 127 0" result="hardAlpha"/>
<feOffset dx="15" dy="21"/>
<feGaussianBlur stdDeviation="8.1"/>
<feComposite in2="hardAlpha" operator="out"/>
<feColorMatrix type="matrix" values="0 0 0 0 1 0 0 0 0 0.866667 0 0 0 0 0.305882 0 0 0 0.1 0"/>
<feBlend mode="normal" in2="BackgroundImageFix" result="effect1_dropShadow_2032_57316"/>
<feBlend mode="normal" in="SourceGraphic" in2="effect1_dropShadow_2032_57316" result="shape"/>
</filter>
<filter id="filter4_ii_2032_57316" x="291.584" y="47.5" width="46.1035" height="41.9247" filterUnits="userSpaceOnUse" color-interpolation-filters="sRGB">
<feFlood flood-opacity="0" result="BackgroundImageFix"/>
<feBlend mode="normal" in="SourceGraphic" in2="BackgroundImageFix" result="shape"/>
<feColorMatrix in="SourceAlpha" type="matrix" values="0 0 0 0 0 0 0 0 0 0 0 0 0 0 0 0 0 0 127 0" result="hardAlpha"/>
<feOffset dx="-7" dy="-2"/>
<feGaussianBlur stdDeviation="4.3"/>
<feComposite in2="hardAlpha" operator="arithmetic" k2="-1" k3="1"/>
<feColorMatrix type="matrix" values="0 0 0 0 0.817497 0 0 0 0 0.573012 0 0 0 0 0 0 0 0 1 0"/>
<feBlend mode="normal" in2="shape" result="effect1_innerShadow_2032_57316"/>
<feColorMatrix in="SourceAlpha" type="matrix" values="0 0 0 0 0 0 0 0 0 0 0 0 0 0 0 0 0 0 127 0" result="hardAlpha"/>
<feOffset dx="4" dy="8"/>
<feGaussianBlur stdDeviation="2.2"/>
<feComposite in2="hardAlpha" operator="arithmetic" k2="-1" k3="1"/>
<feColorMatrix type="matrix" values="0 0 0 0 1 0 0 0 0 1 0 0 0 0 1 0 0 0 0.25 0"/>
<feBlend mode="normal" in2="effect1_innerShadow_2032_57316" result="effect2_innerShadow_2032_57316"/>
</filter>
<filter id="filter5_f_2032_57316" x="315.984" y="49.2904" width="15.9504" height="18.3383" filterUnits="userSpaceOnUse" color-interpolation-filters="sRGB">
<feFlood flood-opacity="0" result="BackgroundImageFix"/>
<feBlend mode="normal" in="SourceGraphic" in2="BackgroundImageFix" result="shape"/>
<feGaussianBlur stdDeviation="1.7" result="effect1_foregroundBlur_2032_57316"/>
</filter>
<filter id="filter6_f_2032_57316" x="104.185" y="57.3972" width="29.9751" height="29.7993" filterUnits="userSpaceOnUse" color-interpolation-filters="sRGB">
<feFlood flood-opacity="0" result="BackgroundImageFix"/>
<feBlend mode="normal" in="SourceGraphic" in2="BackgroundImageFix" result="shape"/>
<feGaussianBlur stdDeviation="2" result="effect1_foregroundBlur_2032_57316"/>
</filter>
<filter id="filter7_ii_2032_57316" x="101.185" y="59.3972" width="32.9751" height="28.1993" filterUnits="userSpaceOnUse" color-interpolation-filters="sRGB">
<feFlood flood-opacity="0" result="BackgroundImageFix"/>
<feBlend mode="normal" in="SourceGraphic" in2="BackgroundImageFix" result="shape"/>
<feColorMatrix in="SourceAlpha" type="matrix" values="0 0 0 0 0 0 0 0 0 0 0 0 0 0 0 0 0 0 127 0" result="hardAlpha"/>
<feOffset dx="-7" dy="-2"/>
<feGaussianBlur stdDeviation="4.3"/>
<feComposite in2="hardAlpha" operator="arithmetic" k2="-1" k3="1"/>
<feColorMatrix type="matrix" values="0 0 0 0 0.817497 0 0 0 0 0.573012 0 0 0 0 0 0 0 0 1 0"/>
<feBlend mode="normal" in2="shape" result="effect1_innerShadow_2032_57316"/>
<feColorMatrix in="SourceAlpha" type="matrix" values="0 0 0 0 0 0 0 0 0 0 0 0 0 0 0 0 0 0 127 0" result="hardAlpha"/>
<feOffset dx="4" dy="8"/>
<feGaussianBlur stdDeviation="2.2"/>
<feComposite in2="hardAlpha" operator="arithmetic" k2="-1" k3="1"/>
<feColorMatrix type="matrix" values="0 0 0 0 1 0 0 0 0 1 0 0 0 0 1 0 0 0 0.25 0"/>
<feBlend mode="normal" in2="effect1_innerShadow_2032_57316" result="effect2_innerShadow_2032_57316"/>
</filter>
<filter id="filter8_f_2032_57316" x="116.967" y="59.3398" width="13.9102" height="14.9346" filterUnits="userSpaceOnUse" color-interpolation-filters="sRGB">
<feFlood flood-opacity="0" result="BackgroundImageFix"/>
<feBlend mode="normal" in="SourceGraphic" in2="BackgroundImageFix" result="shape"/>
<feGaussianBlur stdDeviation="2" result="effect1_foregroundBlur_2032_57316"/>
</filter>
<filter id="filter9_d_2032_57316" x="1211.98" y="98.7065" width="86.3312" height="91.9019" filterUnits="userSpaceOnUse" color-interpolation-filters="sRGB">
<feFlood flood-opacity="0" result="BackgroundImageFix"/>
<feColorMatrix in="SourceAlpha" type="matrix" values="0 0 0 0 0 0 0 0 0 0 0 0 0 0 0 0 0 0 127 0" result="hardAlpha"/>
<feOffset dx="15" dy="21"/>
<feGaussianBlur stdDeviation="8.1"/>
<feComposite in2="hardAlpha" operator="out"/>
<feColorMatrix type="matrix" values="0 0 0 0 0.996078 0 0 0 0 0.835294 0 0 0 0 0.294118 0 0 0 0.1 0"/>
<feBlend mode="normal" in2="BackgroundImageFix" result="effect1_dropShadow_2032_57316"/>
<feBlend mode="normal" in="SourceGraphic" in2="effect1_dropShadow_2032_57316" result="shape"/>
</filter>
<filter id="filter10_ii_2032_57316" x="1206.18" y="96.7065" width="64.9312" height="61.1019" filterUnits="userSpaceOnUse" color-interpolation-filters="sRGB">
<feFlood flood-opacity="0" result="BackgroundImageFix"/>
<feBlend mode="normal" in="SourceGraphic" in2="BackgroundImageFix" result="shape"/>
<feColorMatrix in="SourceAlpha" type="matrix" values="0 0 0 0 0 0 0 0 0 0 0 0 0 0 0 0 0 0 127 0" result="hardAlpha"/>
<feOffset dx="-7" dy="-2"/>
<feGaussianBlur stdDeviation="4.3"/>
<feComposite in2="hardAlpha" operator="arithmetic" k2="-1" k3="1"/>
<feColorMatrix type="matrix" values="0 0 0 0 0.817497 0 0 0 0 0.573012 0 0 0 0 0 0 0 0 1 0"/>
<feBlend mode="normal" in2="shape" result="effect1_innerShadow_2032_57316"/>
<feColorMatrix in="SourceAlpha" type="matrix" values="0 0 0 0 0 0 0 0 0 0 0 0 0 0 0 0 0 0 127 0" result="hardAlpha"/>
<feOffset dx="4" dy="8"/>
<feGaussianBlur stdDeviation="2.2"/>
<feComposite in2="hardAlpha" operator="arithmetic" k2="-1" k3="1"/>
<feColorMatrix type="matrix" values="0 0 0 0 1 0 0 0 0 1 0 0 0 0 1 0 0 0 0.25 0"/>
<feBlend mode="normal" in2="effect1_innerShadow_2032_57316" result="effect2_innerShadow_2032_57316"/>
</filter>
<filter id="filter11_f_2032_57316" x="1218.44" y="98.9094" width="28.7773" height="23.228" filterUnits="userSpaceOnUse" color-interpolation-filters="sRGB">
<feFlood flood-opacity="0" result="BackgroundImageFix"/>
<feBlend mode="normal" in="SourceGraphic" in2="BackgroundImageFix" result="shape"/>
<feGaussianBlur stdDeviation="2" result="effect1_foregroundBlur_2032_57316"/>
</filter>
<filter id="filter12_d_2032_57316" x="1105.11" y="49.5" width="67.5035" height="72.7247" filterUnits="userSpaceOnUse" color-interpolation-filters="sRGB">
<feFlood flood-opacity="0" result="BackgroundImageFix"/>
<feColorMatrix in="SourceAlpha" type="matrix" values="0 0 0 0 0 0 0 0 0 0 0 0 0 0 0 0 0 0 127 0" result="hardAlpha"/>
<feOffset dx="15" dy="21"/>
<feGaussianBlur stdDeviation="8.1"/>
<feComposite in2="hardAlpha" operator="out"/>
<feColorMatrix type="matrix" values="0 0 0 0 1 0 0 0 0 0.866667 0 0 0 0 0.305882 0 0 0 0.1 0"/>
<feBlend mode="normal" in2="BackgroundImageFix" result="effect1_dropShadow_2032_57316"/>
<feBlend mode="normal" in="SourceGraphic" in2="effect1_dropShadow_2032_57316" result="shape"/>
</filter>
<filter id="filter13_ii_2032_57316" x="1099.31" y="47.5" width="46.1035" height="41.9247" filterUnits="userSpaceOnUse" color-interpolation-filters="sRGB">
<feFlood flood-opacity="0" result="BackgroundImageFix"/>
<feBlend mode="normal" in="SourceGraphic" in2="BackgroundImageFix" result="shape"/>
<feColorMatrix in="SourceAlpha" type="matrix" values="0 0 0 0 0 0 0 0 0 0 0 0 0 0 0 0 0 0 127 0" result="hardAlpha"/>
<feOffset dx="-7" dy="-2"/>
<feGaussianBlur stdDeviation="4.3"/>
<feComposite in2="hardAlpha" operator="arithmetic" k2="-1" k3="1"/>
<feColorMatrix type="matrix" values="0 0 0 0 0.817497 0 0 0 0 0.573012 0 0 0 0 0 0 0 0 1 0"/>
<feBlend mode="normal" in2="shape" result="effect1_innerShadow_2032_57316"/>
<feColorMatrix in="SourceAlpha" type="matrix" values="0 0 0 0 0 0 0 0 0 0 0 0 0 0 0 0 0 0 127 0" result="hardAlpha"/>
<feOffset dx="4" dy="8"/>
<feGaussianBlur stdDeviation="2.2"/>
<feComposite in2="hardAlpha" operator="arithmetic" k2="-1" k3="1"/>
<feColorMatrix type="matrix" values="0 0 0 0 1 0 0 0 0 1 0 0 0 0 1 0 0 0 0.25 0"/>
<feBlend mode="normal" in2="effect1_innerShadow_2032_57316" result="effect2_innerShadow_2032_57316"/>
</filter>
<filter id="filter14_f_2032_57316" x="1108.07" y="49.2904" width="15.9504" height="18.3383" filterUnits="userSpaceOnUse" color-interpolation-filters="sRGB">
<feFlood flood-opacity="0" result="BackgroundImageFix"/>
<feBlend mode="normal" in="SourceGraphic" in2="BackgroundImageFix" result="shape"/>
<feGaussianBlur stdDeviation="1.7" result="effect1_foregroundBlur_2032_57316"/>
</filter>
<filter id="filter15_f_2032_57316" x="1305.84" y="57.3972" width="29.9751" height="29.7993" filterUnits="userSpaceOnUse" color-interpolation-filters="sRGB">
<feFlood flood-opacity="0" result="BackgroundImageFix"/>
<feBlend mode="normal" in="SourceGraphic" in2="BackgroundImageFix" result="shape"/>
<feGaussianBlur stdDeviation="2" result="effect1_foregroundBlur_2032_57316"/>
</filter>
<filter id="filter16_ii_2032_57316" x="1302.84" y="59.3972" width="32.9751" height="28.1993" filterUnits="userSpaceOnUse" color-interpolation-filters="sRGB">
<feFlood flood-opacity="0" result="BackgroundImageFix"/>
<feBlend mode="normal" in="SourceGraphic" in2="BackgroundImageFix" result="shape"/>
<feColorMatrix in="SourceAlpha" type="matrix" values="0 0 0 0 0 0 0 0 0 0 0 0 0 0 0 0 0 0 127 0" result="hardAlpha"/>
<feOffset dx="-7" dy="-2"/>
<feGaussianBlur stdDeviation="4.3"/>
<feComposite in2="hardAlpha" operator="arithmetic" k2="-1" k3="1"/>
<feColorMatrix type="matrix" values="0 0 0 0 0.817497 0 0 0 0 0.573012 0 0 0 0 0 0 0 0 1 0"/>
<feBlend mode="normal" in2="shape" result="effect1_innerShadow_2032_57316"/>
<feColorMatrix in="SourceAlpha" type="matrix" values="0 0 0 0 0 0 0 0 0 0 0 0 0 0 0 0 0 0 127 0" result="hardAlpha"/>
<feOffset dx="4" dy="8"/>
<feGaussianBlur stdDeviation="2.2"/>
<feComposite in2="hardAlpha" operator="arithmetic" k2="-1" k3="1"/>
<feColorMatrix type="matrix" values="0 0 0 0 1 0 0 0 0 1 0 0 0 0 1 0 0 0 0.25 0"/>
<feBlend mode="normal" in2="effect1_innerShadow_2032_57316" result="effect2_innerShadow_2032_57316"/>
</filter>
<filter id="filter17_f_2032_57316" x="1309.12" y="59.3398" width="13.9102" height="14.9346" filterUnits="userSpaceOnUse" color-interpolation-filters="sRGB">
<feFlood flood-opacity="0" result="BackgroundImageFix"/>
<feBlend mode="normal" in="SourceGraphic" in2="BackgroundImageFix" result="shape"/>
<feGaussianBlur stdDeviation="2" result="effect1_foregroundBlur_2032_57316"/>
</filter>
<linearGradient id="paint0_linear_2032_57316" x1="209.522" y1="117.186" x2="194.434" y2="144.778" gradientUnits="userSpaceOnUse">
<stop stop-color="#FFD249"/>
<stop offset="1" stop-color="#FFEB53"/>
</linearGradient>
<linearGradient id="paint1_linear_2032_57316" x1="322.147" y1="64.8306" x2="304.681" y2="75.2615" gradientUnits="userSpaceOnUse">
<stop stop-color="#FFD249"/>
<stop offset="1" stop-color="#FFEB53"/>
</linearGradient>
<linearGradient id="paint2_linear_2032_57316" x1="122.966" y1="70.7207" x2="112.638" y2="77.8818" gradientUnits="userSpaceOnUse">
<stop stop-color="#FFD249"/>
<stop offset="1" stop-color="#F2B054"/>
</linearGradient>
<linearGradient id="paint3_linear_2032_57316" x1="1230.48" y1="117.186" x2="1245.57" y2="144.778" gradientUnits="userSpaceOnUse">
<stop stop-color="#FFD249"/>
<stop offset="1" stop-color="#FFEB53"/>
</linearGradient>
<linearGradient id="paint4_linear_2032_57316" x1="1117.85" y1="64.8306" x2="1135.32" y2="75.2615" gradientUnits="userSpaceOnUse">
<stop stop-color="#FFD249"/>
<stop offset="1" stop-color="#FFEB53"/>
</linearGradient>
<linearGradient id="paint5_linear_2032_57316" x1="1317.03" y1="70.7207" x2="1327.36" y2="77.8818" gradientUnits="userSpaceOnUse">
<stop stop-color="#FFD249"/>
<stop offset="1" stop-color="#F2B054"/>
</linearGradient>
</defs>
</svg>
